<svg width="32" height="42" viewBox="0 0 32 42" fill="none" xmlns="http://www.w3.org/2000/svg">
<path fill-rule="evenodd" clip-rule="evenodd" d="M17 11H17.5C19.4331 11 21 9.43311 21 7.5C21 5.56689 19.4331 4 17.5 4H14.5C12.5669 4 11 5.56689 11 7.5C11 9.43311 12.5669 11 14.5 11H15V12.4795L10.4268 15.6807C10.1592 15.8679 10 16.1736 10 16.5C10 16.8264 10.1592 17.1321 10.4268 17.3193L15 20.5205V22H11C10.4478 22 10 22.4478 10 23V28C10 28.5522 10.4478 29 11 29H15V31H14.5C12.5669 31 11 32.5669 11 34.5C11 36.4331 12.5669 38 14.5 38H17.5C19.4331 38 21 36.4331 21 34.5C21 32.5669 19.4331 31 17.5 31H17V29H21C21.5522 29 22 28.5522 22 28V23C22 22.4478 21.5522 22 21 22H17V20.5205L21.5732 17.3193C21.8408 17.1321 22 16.8264 22 16.5C22 16.1736 21.8408 15.8679 21.5732 15.6807L17 12.4795V11ZM14.5 9C13.6714 9 13 8.32837 13 7.5C13 6.67163 13.6714 6 14.5 6H17.5C18.3286 6 19 6.67163 19 7.5C19 8.32837 18.3286 9 17.5 9H14.5ZM14.5 36C13.6714 36 13 35.3284 13 34.5C13 33.6716 13.6714 33 14.5 33H17.5C18.3286 33 19 33.6716 19 34.5C19 35.3284 18.3286 36 17.5 36H14.5ZM12 24V27H20V24H12ZM12.7437 16.5L16 18.7793L19.2563 16.5L16 14.2207L12.7437 16.5Z" fill="black"/>
<path fill-rule="evenodd" clip-rule="evenodd" d="M0 1C0 0.447715 0.447715 0 1 0H31C31.5523 0 32 0.447715 32 1V34C32 34.2652 31.8946 34.5196 31.7071 34.7071L24.7071 41.7071C24.5196 41.8946 24.2652 42 24 42H1C0.447715 42 0 41.5523 0 41V1ZM2 2V40H23V34C23 33.4477 23.4477 33 24 33H30V2H2ZM28.5858 35H25V38.5858L28.5858 35Z" fill="black"/>
<path d="M4 5C4 4.44772 4.44772 4 5 4H8C8.55228 4 9 4.44772 9 5C9 5.55228 8.55228 6 8 6H5C4.44772 6 4 5.55228 4 5Z" fill="black"/>
<path d="M4 9C4 8.44772 4.44772 8 5 8H8C8.55228 8 9 8.44772 9 9C9 9.55228 8.55228 10 8 10H5C4.44772 10 4 9.55228 4 9Z" fill="black"/>
</svg>
