<svg width="83" height="118" viewBox="0 0 83 118" fill="none" xmlns="http://www.w3.org/2000/svg">
<path d="M36.5 79C35.6716 79 35 79.6716 35 80.5C35 81.3284 35.6716 82 36.5 82C37.3284 82 38 81.3284 38 80.5C38 79.6716 37.3284 79 36.5 79Z" fill="#7256E3"/>
<path d="M40 80.5C40 79.6716 40.6716 79 41.5 79C42.3284 79 43 79.6716 43 80.5C43 81.3284 42.3284 82 41.5 82C40.6716 82 40 81.3284 40 80.5Z" fill="#7256E3"/>
<path d="M46.5 79C45.6716 79 45 79.6716 45 80.5C45 81.3284 45.6716 82 46.5 82C47.3284 82 48 81.3284 48 80.5C48 79.6716 47.3284 79 46.5 79Z" fill="#7256E3"/>
<path d="M21 93.5C21 92.6716 21.6716 92 22.5 92H50.5C51.3284 92 52 92.6716 52 93.5C52 94.3284 51.3284 95 50.5 95H22.5C21.6716 95 21 94.3284 21 93.5Z" fill="#7256E3"/>
<path d="M57.5 92C56.6716 92 56 92.6716 56 93.5C56 94.3284 56.6716 95 57.5 95H60.5C61.3284 95 62 94.3284 62 93.5C62 92.6716 61.3284 92 60.5 92H57.5Z" fill="#7256E3"/>
<path d="M62 103.5C62 102.672 61.3284 102 60.5 102H32.5C31.6716 102 31 102.672 31 103.5C31 104.328 31.6716 105 32.5 105H60.5C61.3284 105 62 104.328 62 103.5Z" fill="#7256E3"/>
<path d="M25.5 102C26.3284 102 27 102.672 27 103.5C27 104.328 26.3284 105 25.5 105H22.5C21.6716 105 21 104.328 21 103.5C21 102.672 21.6716 102 22.5 102H25.5Z" fill="#7256E3"/>
<path fill-rule="evenodd" clip-rule="evenodd" d="M55.9557 1.86378C56.0978 1.29548 55.896 0.696478 55.4391 0.329939C54.9821 -0.0365998 54.3536 -0.103601 53.8297 0.158377L38.5762 7.78521L26.2866 0.222517C25.7784 -0.0902497 25.1331 -0.0719773 24.6433 0.269064C24.1536 0.610098 23.9126 1.20901 24.0296 1.79421L25.4953 9.12162L15.0384 5.09998C14.4727 4.88239 13.8315 5.02672 13.4136 5.46576C12.9956 5.90481 12.883 6.55226 13.1281 7.10665L26.5614 37.4847L4.15415 85.7192C1.36015 91.1098 0.545499 95.822 1.06841 99.8605C1.53039 103.428 3.02282 106.365 4.94439 108.693L0.255413 115.663C-0.0539897 116.123 -0.0845225 116.716 0.176016 117.205C0.436552 117.694 0.945684 118 1.5 118H81.5C82.0543 118 82.5634 117.694 82.8239 117.205C83.0845 116.716 83.054 116.123 82.7447 115.663L78.0569 108.693C79.9785 106.365 81.471 103.428 81.933 99.8605C82.4559 95.8222 81.6413 91.1104 78.8477 85.7202L56.4983 37.4367L68.9062 4.02217C69.1127 3.46602 68.972 2.84041 68.5473 2.42619C68.1226 2.01197 67.4937 1.88697 66.9429 2.10731L54.6674 7.01774L55.9557 1.86378ZM17.3325 9.19649L26.2197 12.6144L31.6529 36H29.1851L17.3325 9.19649ZM43.4083 36H34.7328L28.967 11.1831L27.6467 4.58197L37.7146 10.7775C38.1564 11.0494 38.7074 11.0737 39.1715 10.8417L52.2544 4.30014L51.0513 9.11305L43.4083 36ZM46.5272 36L53.742 10.619L64.9162 6.14913L53.8317 36H46.5272ZM48.5626 39H53.9162L76.1395 87.0111C76.149 87.0317 76.1591 87.0522 76.1696 87.0724C78.753 92.0461 79.388 96.1532 78.9578 99.4752C78.5277 102.797 77.0152 105.469 75.0721 107.546C72.7898 109.985 69.9392 111.57 67.6816 112.343C66.8978 112.611 66.4799 113.464 66.7481 114.248C66.8571 114.566 67.0624 114.824 67.3203 115H15.6811C15.939 114.824 16.1443 114.566 16.2532 114.248C16.5215 113.464 16.1036 112.611 15.3198 112.343C13.0622 111.57 10.2116 109.985 7.9293 107.546C5.98617 105.469 4.47369 102.797 4.04357 99.4752C3.61343 96.1532 4.24839 92.0461 6.83184 87.0724C6.84203 87.0528 6.85177 87.033 6.86108 87.0129L29.1654 39H34.5349L31.562 49.0755C31.5561 49.0956 31.5506 49.1159 31.5455 49.1362C31.4703 49.4369 31.3768 49.7805 31.2777 50.1445C31.0902 50.8332 30.8829 51.5951 30.7428 52.2755C30.5229 53.3445 30.3687 54.6117 30.7057 55.7876C31.0798 57.0928 32.0016 58.0999 33.4976 58.6434C34.8905 59.1495 36.7565 59.2502 39.1612 58.9914C39.9849 58.9028 40.5807 58.1632 40.4921 57.3395C40.4034 56.5158 39.6639 55.92 38.8402 56.0086C36.6075 56.2489 35.2798 56.0991 34.522 55.8237C33.8672 55.5858 33.6812 55.2806 33.5896 54.961C33.4609 54.5121 33.4833 53.8422 33.6813 52.8802C33.8061 52.2737 33.9625 51.7029 34.1298 51.0922C34.2334 50.7143 34.3411 50.3211 34.4482 49.8947L37.6627 39H45.5417L47.5109 55.6759C47.608 56.4986 48.3537 57.0868 49.1764 56.9897C49.9991 56.8925 50.5873 56.1468 50.4902 55.3241L48.5626 39ZM78.6835 115H69.1577C71.2743 114.206 73.7269 112.853 75.9252 110.899L78.6835 115ZM7.07608 110.898C9.27435 112.853 11.727 114.206 13.8437 115H4.31691L7.07608 110.898Z" fill="#7256E3"/>
</svg>
