<svg width="83" height="118" viewBox="0 0 83 118" fill="none" xmlns="http://www.w3.org/2000/svg">
<path d="M22 98.5C22 97.6716 22.6716 97 23.5 97H51.5C52.3284 97 53 97.6716 53 98.5C53 99.3284 52.3284 100 51.5 100H23.5C22.6716 100 22 99.3284 22 98.5Z" fill="#7256E3"/>
<path d="M57.5 97C56.6716 97 56 97.6716 56 98.5C56 99.3284 56.6716 100 57.5 100H60.5C61.3284 100 62 99.3284 62 98.5C62 97.6716 61.3284 97 60.5 97H57.5Z" fill="#7256E3"/>
<path d="M36.3796 86.3535C36.6198 86.1272 36.9456 86 37.2853 86H40L39.9999 75.2879C39.466 75.7586 38.8803 76.0595 38.2543 76.3811C38.1483 76.4355 38.0412 76.4905 37.933 76.547C37.7374 76.6527 37.5158 76.7083 37.2902 76.7082C37.0647 76.7081 36.8432 76.6523 36.6476 76.5464C36.4521 76.4405 36.2894 76.2882 36.1758 76.1046C36.0622 75.921 36.0016 75.7125 36 75.5C35.9995 75.2732 36.0675 75.051 36.1962 74.8594C36.3248 74.6678 36.5088 74.5147 36.7264 74.418C36.8831 74.3456 37.0377 74.2779 37.1901 74.2112C37.6986 73.9885 38.1829 73.7765 38.638 73.4344C39.3292 72.944 39.8993 72.3181 40.309 71.6C40.4179 71.4151 40.5781 71.2617 40.7724 71.156C40.9667 71.0503 41.1879 70.9965 41.4122 71.0002H41.8181C42.1578 71.0002 42.4836 71.1273 42.7238 71.3537C42.964 71.5801 42.9999 71.8871 42.9999 72.2072L43 86H45.7192C46.0589 86 46.3847 86.1272 46.6249 86.3535C46.8651 86.5799 47 86.8869 47 87.2071L46.9999 87.7929C46.9999 88.1131 46.865 88.4201 46.6248 88.6465C46.3846 88.8728 46.0588 89 45.7191 89H37.2852C36.9455 89 36.6197 88.8728 36.3795 88.6465C36.1393 88.4201 36.0044 88.1131 36.0044 87.7929L36.0045 87.2071C36.0045 86.8869 36.1394 86.5799 36.3796 86.3535Z" fill="#7256E3"/>
<path fill-rule="evenodd" clip-rule="evenodd" d="M55.4391 0.329939C55.896 0.696478 56.0978 1.29548 55.9557 1.86379L54.6674 7.01775L66.9429 2.10731C67.4937 1.88697 68.1226 2.01197 68.5473 2.42619C68.972 2.84042 69.1127 3.46602 68.9062 4.02217L56.4983 37.4367L78.8477 85.7202C81.6413 91.1104 82.4559 95.8222 81.933 99.8605C81.471 103.428 79.9785 106.365 78.0569 108.693L82.7447 115.663C83.054 116.123 83.0845 116.716 82.8239 117.205C82.5634 117.694 82.0543 118 81.5 118H1.5C0.945685 118 0.436553 117.694 0.176015 117.205C-0.0845224 116.716 -0.0539901 116.123 0.255414 115.663L4.94439 108.693C3.02282 106.365 1.53039 103.428 1.06841 99.8605C0.545501 95.822 1.36015 91.1098 4.15415 85.7192L26.5614 37.4847L13.1281 7.10665C12.883 6.55226 12.9956 5.90481 13.4136 5.46576C13.8315 5.02672 14.4727 4.88239 15.0384 5.09999L25.4953 9.12162L24.0296 1.79421C23.9126 1.20902 24.1536 0.610103 24.6433 0.269065C25.1331 -0.0719729 25.7784 -0.0902503 26.2866 0.222521L38.5762 7.78521L53.8297 0.158376C54.3536 -0.1036 54.9821 -0.0366004 55.4391 0.329939ZM26.2197 12.6144L17.3325 9.19649L29.1851 36H31.6529L26.2197 12.6144ZM43.4083 36L51.0513 9.11306L52.2544 4.30014L39.1715 10.8417C38.7074 11.0737 38.1564 11.0494 37.7146 10.7775L27.6467 4.58197L28.967 11.1831L34.7328 36H43.4083ZM53.742 10.619L46.5272 36H53.8317L64.9162 6.14913L53.742 10.619ZM48.5626 39L50.4902 55.3241C50.5873 56.1468 49.9991 56.8925 49.1764 56.9897C48.3537 57.0868 47.608 56.4986 47.5109 55.6759L45.5417 39H37.6627L34.4482 49.8947C34.3411 50.3211 34.2334 50.7143 34.1298 51.0922C33.9625 51.7029 33.8061 52.2737 33.6813 52.8802C33.4833 53.8422 33.4609 54.5121 33.5896 54.961C33.6812 55.2806 33.8672 55.5858 34.522 55.8237C35.2798 56.0991 36.6075 56.2489 38.8402 56.0086C39.6639 55.92 40.4034 56.5158 40.4921 57.3395C40.5807 58.1632 39.9849 58.9028 39.1612 58.9914C36.7565 59.2502 34.8905 59.1495 33.4976 58.6434C32.0016 58.0999 31.0798 57.0928 30.7057 55.7876C30.3687 54.6117 30.5229 53.3445 30.7428 52.2755C30.8829 51.5951 31.0901 50.8337 31.2776 50.1449L31.287 50.1103C31.3826 49.759 31.4727 49.4275 31.5455 49.1362C31.5506 49.1159 31.5561 49.0956 31.562 49.0755L34.5349 39H29.1654L6.86108 87.0129C6.85177 87.033 6.84203 87.0528 6.83184 87.0724C4.24839 92.0461 3.61343 96.1532 4.04357 99.4752C4.47369 102.797 5.98617 105.469 7.9293 107.546C10.2116 109.985 13.0622 111.57 15.3198 112.343C16.1036 112.611 16.5215 113.464 16.2532 114.248C16.1443 114.566 15.939 114.824 15.6811 115H67.3203C67.0624 114.824 66.8571 114.566 66.7481 114.248C66.4799 113.464 66.8978 112.611 67.6816 112.343C69.9392 111.57 72.7898 109.985 75.0721 107.546C77.0152 105.469 78.5277 102.797 78.9578 99.4752C79.388 96.1532 78.753 92.0461 76.1696 87.0724C76.1591 87.0522 76.149 87.0317 76.1395 87.0111L53.9162 39H48.5626ZM78.6835 115L75.9252 110.899C73.7269 112.853 71.2743 114.206 69.1577 115H78.6835ZM13.8437 115C11.727 114.206 9.27435 112.853 7.07608 110.898L4.31691 115H13.8437Z" fill="#7256E3"/>
</svg>
