<svg width="27" height="27" viewBox="0 0 27 27" version="1.1" xmlns="http://www.w3.org/2000/svg" xmlns:xlink="http://www.w3.org/1999/xlink">
<g id="Canvas" fill="none">
<g id="Group">
<g id="Vector">
<path d="M 26.5323 24.2938L 15.7429 13.5044L 26.5323 2.715C 27.1559 2.0914 27.1559 1.0913 26.5323 0.467698C 25.9087 -0.155899 24.9086 -0.155899 24.285 0.467698L 13.4956 11.2571L 2.70618 0.467698C 2.09435 -0.144133 1.08247 -0.144133 0.470639 0.467698C 0.164724 0.761848 0 1.16189 0 1.58547C 0 2.00904 0.164724 2.40909 0.470639 2.70324L 11.26 13.4926L 0.470639 24.2938C 0.164724 24.588 0 24.988 0 25.4116C 0 25.8352 0.164724 26.2352 0.470639 26.5294C 0.776555 26.8235 1.16483 27 1.58841 27C 2.01198 27 2.41203 26.8353 2.70618 26.5294L 13.4956 15.7399L 24.285 26.5294C 24.5791 26.8235 24.9792 27 25.4028 27C 25.8263 27 26.2264 26.8353 26.5205 26.5294C 27.1559 25.9293 27.1559 24.9174 26.5323 24.2938Z" transform="translate(27 0) scale(-1 1)" fill="black"/>
</g>
</g>
</g>
</svg>

