<svg width="21" height="21" viewBox="0 0 21 21" fill="none" xmlns="http://www.w3.org/2000/svg">
<path fill-rule="evenodd" clip-rule="evenodd" d="M0.439347 0.43934C1.02513 -0.146447 1.97488 -0.146447 2.56067 0.43934L10.5 8.37868L18.4393 0.439345C19.0251 -0.146441 19.9749 -0.146441 20.5607 0.439346C21.1464 1.02513 21.1464 1.97488 20.5607 2.56067L12.6213 10.5L20.5607 18.4393C21.1464 19.0251 21.1464 19.9749 20.5607 20.5607C19.9749 21.1464 19.0251 21.1464 18.4393 20.5607L10.5 12.6213L2.56066 20.5607C1.97487 21.1464 1.02513 21.1464 0.43934 20.5607C-0.146447 19.9749 -0.146447 19.0251 0.43934 18.4393L8.37868 10.5L0.439347 2.56066C-0.146439 1.97487 -0.146439 1.02513 0.439347 0.43934Z" fill="black"/>
</svg>
