<svg width="30" height="29" viewBox="0 0 30 29" version="1.1" xmlns="http://www.w3.org/2000/svg" xmlns:xlink="http://www.w3.org/1999/xlink">
<g id="Canvas" fill="none">
<g id="noun_545361_cc">
<g id="Vector">
<path d="M 26.0507 2.92138L 24.2029 2.92138L 24.2029 1.03317C 24.2029 0.463145 23.7319 0 23.1522 0C 22.5725 0 22.1014 0.463145 22.1014 1.03317L 22.1014 2.92138L 16.0507 2.92138L 16.0507 1.03317C 16.0507 0.463145 15.5797 0 15 0C 14.4203 0 13.9493 0.463145 13.9493 1.03317L 13.9493 2.92138L 7.89855 2.92138L 7.89855 1.03317C 7.89855 0.463145 7.42754 0 6.84783 0C 6.26812 0 5.7971 0.463145 5.7971 1.03317L 5.7971 2.92138L 3.94928 2.92138C 1.77536 2.92138 0 4.66708 0 6.80467L 0 25.1167C 0 27.2543 1.77536 29 3.94928 29L 26.0507 29C 28.2246 29 30 27.2543 30 25.1167L 30 6.80467C 30 4.66708 28.2246 2.92138 26.0507 2.92138ZM 27.8985 25.1167C 27.8985 26.1143 27.0652 26.9337 26.0507 26.9337L 3.94928 26.9337C 2.93478 26.9337 2.10145 26.1143 2.10145 25.1167L 2.10145 6.80467C 2.10145 5.80712 2.93478 4.98771 3.94928 4.98771L 5.7971 4.98771L 5.7971 6.05651C 5.7971 6.62654 6.26812 7.08968 6.84783 7.08968C 7.42754 7.08968 7.89855 6.62654 7.89855 6.05651L 7.89855 4.98771L 13.9493 4.98771L 13.9493 6.05651C 13.9493 6.62654 14.4203 7.08968 15 7.08968C 15.5797 7.08968 16.0507 6.62654 16.0507 6.05651L 16.0507 4.98771L 22.1014 4.98771L 22.1014 6.05651C 22.1014 6.62654 22.5725 7.08968 23.1522 7.08968C 23.7319 7.08968 24.2029 6.62654 24.2029 6.05651L 24.2029 4.98771L 26.0507 4.98771C 27.0652 4.98771 27.8985 5.80712 27.8985 6.80467L 27.8985 25.1167Z" fill="white"/>
</g>
<g id="Vector_2">
<path d="M 4.92754 5.43618e-07L 1.05072 5.43618e-07C 0.471015 5.43618e-07 2.76427e-07 0.463146 2.76427e-07 1.03317C 2.76427e-07 1.6032 0.471015 2.06634 1.05072 2.06634L 4.92754 2.06634C 5.50725 2.06634 5.97826 1.6032 5.97826 1.03317C 5.97826 0.463146 5.50725 5.43618e-07 4.92754 5.43618e-07Z" transform="translate(4.56519 21.4472)" fill="white"/>
</g>
<g id="Vector_3">
<path d="M 4.92754 5.43618e-07L 1.05072 5.43618e-07C 0.471015 5.43618e-07 2.76427e-07 0.463145 2.76427e-07 1.03317C 2.76427e-07 1.60319 0.471015 2.06634 1.05072 2.06634L 4.92754 2.06634C 5.50725 2.06634 5.97826 1.60319 5.97826 1.03317C 5.97826 0.463145 5.50725 5.43618e-07 4.92754 5.43618e-07Z" transform="translate(4.56519 15.925)" fill="white"/>
</g>
<g id="Vector_4">
<path d="M 4.96377 5.43618e-07L 1.05072 5.43618e-07C 0.471014 5.43618e-07 2.76427e-07 0.463145 2.76427e-07 1.03317C 2.76427e-07 1.60319 0.471014 2.06634 1.05072 2.06634L 4.92754 2.06634C 5.50725 2.06634 5.97826 1.60319 5.97826 1.03317C 5.97826 0.463145 5.54348 5.43618e-07 4.96377 5.43618e-07Z" transform="translate(11.9927 10.403)" fill="white"/>
</g>
<g id="Vector_5">
<path d="M 4.96377 5.43618e-07L 1.05072 5.43618e-07C 0.471014 5.43618e-07 2.76427e-07 0.463146 2.76427e-07 1.03317C 2.76427e-07 1.6032 0.471014 2.06634 1.05072 2.06634L 4.92754 2.06634C 5.50725 2.06634 5.97826 1.6032 5.97826 1.03317C 5.97826 0.463146 5.54348 5.43618e-07 4.96377 5.43618e-07Z" transform="translate(11.9927 21.4472)" fill="white"/>
</g>
<g id="Vector_6">
<path d="M 4.96377 5.43618e-07L 1.05072 5.43618e-07C 0.471014 5.43618e-07 2.76427e-07 0.463145 2.76427e-07 1.03317C 2.76427e-07 1.60319 0.471014 2.06634 1.05072 2.06634L 4.92754 2.06634C 5.50725 2.06634 5.97826 1.60319 5.97826 1.03317C 5.97826 0.463145 5.54348 5.43618e-07 4.96377 5.43618e-07Z" transform="translate(11.9927 15.925)" fill="white"/>
</g>
<g id="Vector_7">
<path d="M 4.92754 5.43618e-07L 1.05072 5.43618e-07C 0.471013 5.43618e-07 -2.76427e-07 0.463145 -2.76427e-07 1.03317C -2.76427e-07 1.60319 0.471013 2.06634 1.05072 2.06634L 4.92754 2.06634C 5.50725 2.06634 5.97826 1.60319 5.97826 1.03317C 5.97826 0.463145 5.50725 5.43618e-07 4.92754 5.43618e-07Z" transform="translate(19.4565 10.403)" fill="white"/>
</g>
<g id="Vector_8">
<path d="M 4.92754 5.43618e-07L 1.05072 5.43618e-07C 0.471013 5.43618e-07 -2.76427e-07 0.463146 -2.76427e-07 1.03317C -2.76427e-07 1.6032 0.471013 2.06634 1.05072 2.06634L 4.92754 2.06634C 5.50725 2.06634 5.97826 1.6032 5.97826 1.03317C 5.97826 0.463146 5.50725 5.43618e-07 4.92754 5.43618e-07Z" transform="translate(19.4565 21.4472)" fill="white"/>
</g>
<g id="Vector_9">
<path d="M 4.92754 5.43618e-07L 1.05072 5.43618e-07C 0.471013 5.43618e-07 -2.76427e-07 0.463145 -2.76427e-07 1.03317C -2.76427e-07 1.60319 0.471013 2.06634 1.05072 2.06634L 4.92754 2.06634C 5.50725 2.06634 5.97826 1.60319 5.97826 1.03317C 5.97826 0.463145 5.50725 5.43618e-07 4.92754 5.43618e-07Z" transform="translate(19.4565 15.925)" fill="white"/>
</g>
</g>
</g>
</svg>

