<svg width="102" height="136" viewBox="0 0 102 136" fill="none" xmlns="http://www.w3.org/2000/svg">
<path fill-rule="evenodd" clip-rule="evenodd" d="M58.1313 9.87148C60.3478 9.35882 62 7.37236 62 5C62 2.23858 59.7614 0 57 0C54.2386 0 52 2.23858 52 5C52 7.10075 53.2956 8.89891 55.1313 9.63908V34.1906L50.4825 38.8612L46.2525 34.6312C46.7264 33.8669 47 32.9654 47 32C47 29.2386 44.7614 27 42 27C39.2386 27 37 29.2386 37 32C37 34.7614 39.2386 37 42 37C42.701 37 43.3684 36.8557 43.9739 36.5953L48.3662 40.9875L41.6145 47.771L32.7905 38.9055V17.6699C34.6675 16.9497 36 15.1305 36 13C36 10.2386 33.7614 8 31 8C28.2386 8 26 10.2386 26 13C26 15.3444 27.6134 17.3119 29.7905 17.8527V28.5833L23.4732 22.2364C23.8103 21.5634 24 20.8039 24 20C24 17.2386 21.7614 15 19 15C16.2386 15 14 17.2386 14 20C14 22.7614 16.2386 25 19 25C19.8649 25 20.6784 24.7804 21.388 24.394L29.7905 32.836V39.5247C29.7905 39.9213 29.9475 40.3018 30.2273 40.5829L40.5514 50.9555C40.5607 50.9649 40.5702 50.9741 40.5797 50.9833L51 60.9126V102.879L48.0517 99.9304C48.6483 99.107 49 98.0946 49 97C49 94.2386 46.7614 92 44 92C41.2386 92 39 94.2386 39 97C39 99.7614 41.2386 102 44 102C44.5643 102 45.1068 101.907 45.6128 101.734L51 107.121V114.461L33.4211 97.2671L44.7894 85.8452C45.0692 85.5641 45.2262 85.1837 45.2262 84.7871V71.8485C47.3948 71.3018 49 69.3383 49 67C49 64.2386 46.7614 62 44 62C41.2386 62 39 64.2386 39 67C39 69.1368 40.3404 70.9605 42.2262 71.6762V84.1678L31.2905 95.1551L24.3436 88.1754V58.384C24.3436 57.9874 24.1865 57.607 23.9067 57.3259L19.7979 53.1977L22.5968 50.3857C23.3099 50.7773 24.129 51 25 51C27.7614 51 30 48.7614 30 46C30 43.2386 27.7614 41 25 41C22.2386 41 20 43.2386 20 46C20 46.7976 20.1868 47.5516 20.5189 48.2206L17.6815 51.0714L9.26336 42.6136C9.73057 41.8531 10 40.958 10 40C10 37.2386 7.76142 35 5 35C2.23858 35 0 37.2386 0 40C0 42.7614 2.23858 45 5 45C5.70889 45 6.38332 44.8525 6.99427 44.5865L21.3436 59.0033V71.4138C20.8043 70.867 20.2098 70.2737 19.5861 69.6578C17.1798 67.2816 14.2965 64.5267 12.3756 62.7149L12.2651 62.6107C12.7313 61.8508 13 60.9568 13 60C13 57.2386 10.7614 55 8 55C5.23858 55 3 57.2386 3 60C3 62.7614 5.23858 65 8 65C8.70712 65 9.37995 64.8532 9.98969 64.5884L10.3171 64.8973C12.2286 66.7001 15.0939 69.438 17.4781 71.7924C18.6721 72.9714 19.7344 74.0434 20.4938 74.8502C20.8715 75.2515 21.1574 75.5694 21.3436 75.7941V88.7947C21.3436 89.1913 21.5006 89.5717 21.7804 89.8528L30.2273 98.3395L30.2416 98.3537L51 118.658V133H11.5C10.6715 133 9.99998 133.672 9.99998 134.5C9.99998 135.328 10.6715 136 11.5 136H92.5C93.3284 136 94 135.328 94 134.5C94 133.672 93.3284 133 92.5 133H54V118.636L78.267 93.6915C78.8069 93.891 79.3907 94 80 94C82.7614 94 85 91.7614 85 89C85 86.2386 82.7614 84 80 84C77.2386 84 75 86.2386 75 89C75 90.0544 75.3264 91.0327 75.8837 91.8391L54 114.334V100.244L71.3116 82.3009L94.9427 58.5585C95.5702 58.8421 96.2666 59 97 59C99.7614 59 102 56.7614 102 54C102 51.2386 99.7614 49 97 49C94.2386 49 92 51.2386 92 54C92 54.9343 92.2562 55.8087 92.7023 56.5568L81.8296 67.4807V50.2917L92.3871 39.7342C92.8932 39.9065 93.4357 40 94 40C96.7614 40 99 37.7614 99 35C99 32.2386 96.7614 30 94 30C91.2386 30 89 32.2386 89 35C89 36.0946 89.3517 37.107 89.9483 37.9304L81.8296 46.0491V32.836L91.0267 23.5955C91.6321 23.8558 92.2992 24 93 24C95.7614 24 98 21.7614 98 19C98 16.2386 95.7614 14 93 14C90.2386 14 88 16.2386 88 19C88 19.9658 88.2738 20.8677 88.7481 21.6322L79.2664 31.1586C78.9867 31.4397 78.8296 31.8201 78.8296 32.2167V55.6936L70.0751 46.8979C70.6575 46.0804 71 45.0802 71 44C71 41.2386 68.7614 39 66 39C63.2386 39 61 41.2386 61 44C61 46.7614 63.2386 49 66 49C66.5802 49 67.1373 48.9012 67.6554 48.7195L78.8296 59.9463V70.4948L69.177 80.1928L69.1607 80.2095L54 95.9236V78.611L60.7256 72.4539C61.4079 72.803 62.1809 73 63 73C65.7614 73 68 70.7614 68 68C68 65.2386 65.7614 63 63 63C60.2386 63 58 65.2386 58 68C58 68.8483 58.2113 69.6473 58.584 70.3471L54 74.5437V60.27C54 59.8596 53.8318 59.4671 53.5347 59.184L43.7591 49.8689L57.6944 35.8681C57.9742 35.587 58.1313 35.2065 58.1313 34.8099V26.471L67.9805 16.5754C68.5981 16.8484 69.2813 17 70 17C72.7614 17 75 14.7614 75 12C75 9.23858 72.7614 7 70 7C67.2386 7 65 9.23858 65 12C65 12.9485 65.2641 13.8354 65.7228 14.591L58.1313 22.2183V9.87148ZM59 5C59 6.10457 58.1046 7 57 7C55.8954 7 55 6.10457 55 5C55 3.89543 55.8954 3 57 3C58.1046 3 59 3.89543 59 5ZM70 14C71.1046 14 72 13.1046 72 12C72 10.8954 71.1046 10 70 10C68.8954 10 68 10.8954 68 12C68 13.1046 68.8954 14 70 14ZM5 42C6.10457 42 7 41.1046 7 40C7 38.8954 6.10457 38 5 38C3.89543 38 3 38.8954 3 40C3 41.1046 3.89543 42 5 42ZM10 60C10 61.1046 9.10457 62 8 62C6.89543 62 6 61.1046 6 60C6 58.8954 6.89543 58 8 58C9.10457 58 10 58.8954 10 60ZM44 69C45.1046 69 46 68.1046 46 67C46 65.8954 45.1046 65 44 65C42.8954 65 42 65.8954 42 67C42 68.1046 42.8954 69 44 69ZM46 97C46 98.1046 45.1046 99 44 99C42.8954 99 42 98.1046 42 97C42 95.8954 42.8954 95 44 95C45.1046 95 46 95.8954 46 97ZM80 91C81.1046 91 82 90.1046 82 89C82 87.8954 81.1046 87 80 87C78.8954 87 78 87.8954 78 89C78 90.1046 78.8954 91 80 91ZM65 68C65 69.1046 64.1046 70 63 70C61.8954 70 61 69.1046 61 68C61 66.8954 61.8954 66 63 66C64.1046 66 65 66.8954 65 68ZM97 56C98.1046 56 99 55.1046 99 54C99 52.8954 98.1046 52 97 52C95.8954 52 95 52.8954 95 54C95 55.1046 95.8954 56 97 56ZM68 44C68 45.1046 67.1046 46 66 46C64.8954 46 64 45.1046 64 44C64 42.8954 64.8954 42 66 42C67.1046 42 68 42.8954 68 44ZM93 21C94.1046 21 95 20.1046 95 19C95 17.8954 94.1046 17 93 17C91.8954 17 91 17.8954 91 19C91 20.1046 91.8954 21 93 21ZM96 35C96 36.1046 95.1046 37 94 37C92.8954 37 92 36.1046 92 35C92 33.8954 92.8954 33 94 33C95.1046 33 96 33.8954 96 35ZM42 34C43.1046 34 44 33.1046 44 32C44 30.8954 43.1046 30 42 30C40.8954 30 40 30.8954 40 32C40 33.1046 40.8954 34 42 34ZM33 13C33 14.1046 32.1046 15 31 15C29.8954 15 29 14.1046 29 13C29 11.8954 29.8954 11 31 11C32.1046 11 33 11.8954 33 13ZM19 22C20.1046 22 21 21.1046 21 20C21 18.8954 20.1046 18 19 18C17.8954 18 17 18.8954 17 20C17 21.1046 17.8954 22 19 22ZM27 46C27 47.1046 26.1046 48 25 48C23.8954 48 23 47.1046 23 46C23 44.8954 23.8954 44 25 44C26.1046 44 27 44.8954 27 46Z" fill="#7256E3"/>
</svg>
