<svg width="22" height="20" viewBox="0 0 22 20" version="1.1" xmlns="http://www.w3.org/2000/svg" xmlns:xlink="http://www.w3.org/1999/xlink">
<g id="Canvas" fill="none">
<g id="Group">
<g id="Group_2">
<g id="Group_3">
<g id="Vector">
<path d="M 9.15286 20C 9.00644 20 8.84876 19.9662 8.71361 19.8874C 8.39824 19.7185 8.19551 19.3919 8.19551 19.0428L 8.19551 11.9707L 0.198759 1.55405C -0.0265012 1.26126 -0.0602903 0.878378 0.097392 0.551802C 0.255074 0.225225 0.604228 0 0.964645 0L 21.0466 0C 21.407 0 21.7449 0.202703 21.9026 0.540541C 22.0603 0.867117 22.0265 1.26126 21.8012 1.54279L 13.8045 11.9032L 13.8045 16.4302C 13.8045 16.7455 13.6581 17.0383 13.399 17.2072L 9.70475 19.8198C 9.54707 19.9324 9.3556 20 9.15286 20ZM 2.90189 1.91441L 9.91875 11.0586C 10.0426 11.2275 10.1215 11.4302 10.1215 11.6441L 10.1215 17.1959L 11.9123 15.9347L 11.9123 11.5766C 11.9123 11.3626 11.9799 11.1599 12.115 10.991L 19.0981 1.91441L 2.90189 1.91441Z" fill="black"/>
</g>
</g>
<g id="Group_4">
<g id="Group_5">
<g id="Vector_2">
<path d="M 6.33227 1.91441L 0.957728 1.91441C 0.428161 1.91441 0 1.48649 0 0.957207C 0 0.427928 0.428161 -8.59166e-08 0.957728 -8.59166e-08L 6.33227 -8.59166e-08C 6.86184 -8.59166e-08 7.29 0.427928 7.29 0.957207C 7.29 1.48649 6.86184 1.91441 6.33227 1.91441Z" transform="translate(3.21729 3.58109)" fill="black"/>
</g>
</g>
</g>
</g>
</g>
</g>
</svg>

