<svg width="32" height="32" viewBox="0 0 32 32" fill="none" xmlns="http://www.w3.org/2000/svg">
<path fill-rule="evenodd" clip-rule="evenodd" d="M0.109642 0.544748C0.280602 0.210391 0.624475 0 1 0H31C31.3688 0 31.7077 0.202985 31.8817 0.528142C32.0557 0.8533 32.0366 1.24784 31.8321 1.5547L20 19.3028V27C20 27.3038 19.8619 27.5911 19.6247 27.7809L14.6247 31.7809C14.3245 32.021 13.9133 32.0678 13.5668 31.9013C13.2203 31.7348 13 31.3844 13 31V19.3234L0.189325 1.58549C-0.0305439 1.28106 -0.0613189 0.879105 0.109642 0.544748ZM2.95576 2L5.84465 6H14C14.5523 6 15 6.44772 15 7C15 7.55228 14.5523 8 14 8H7.28909L14.8107 18.4145C14.9338 18.5849 15 18.7898 15 19V28.9194L18 26.5194V19C18 18.8026 18.0584 18.6096 18.168 18.4453L29.1315 2H2.95576Z" fill="black"/>
</svg>
