<svg width="26" height="28" viewBox="0 0 26 28" fill="none" xmlns="http://www.w3.org/2000/svg">
<path fill-rule="evenodd" clip-rule="evenodd" d="M11.3372 3.89559C9.927 6.11577 7.50261 7.48037 4.88305 7.56963C3.37449 7.62103 2.60506 9.14395 3.22415 10.288C4.47895 12.6069 4.47895 15.3931 3.22415 17.712C2.60506 18.8561 3.37449 20.379 4.88305 20.4304C7.50261 20.5196 9.927 21.8842 11.3372 24.1044C12.0956 25.2985 13.9044 25.2985 14.6628 24.1044C16.073 21.8842 18.4974 20.5196 21.117 20.4304C22.6255 20.379 23.3949 18.8561 22.7758 17.712C21.5211 15.3931 21.5211 12.6069 22.7758 10.288C23.3949 9.14395 22.6255 7.62103 21.117 7.56963C18.4974 7.48037 16.073 6.11577 14.6628 3.89559C13.9044 2.70147 12.0956 2.70147 11.3372 3.89559ZM17.1952 2.28714C15.2583 -0.762381 10.7417 -0.762381 8.80479 2.28714C7.93335 3.65917 6.42509 4.51535 4.78089 4.57137C1.1264 4.69589 -1.13189 8.54173 0.585682 11.7158C1.35844 13.1438 1.35844 14.8562 0.585682 16.2842C-1.13189 19.4583 1.1264 23.3041 4.78089 23.4286C6.42509 23.4847 7.93335 24.3408 8.80479 25.7129C10.7417 28.7624 15.2583 28.7624 17.1952 25.7129C18.0667 24.3408 19.5749 23.4847 21.2191 23.4286C24.8736 23.3041 27.1319 19.4583 25.4143 16.2842C24.6416 14.8562 24.6416 13.1438 25.4143 11.7158C27.1319 8.54173 24.8736 4.69589 21.2191 4.57137C19.5749 4.51535 18.0667 3.65917 17.1952 2.28714Z" fill="white"/>
<path fill-rule="evenodd" clip-rule="evenodd" d="M13 16C14.1046 16 15 15.1046 15 14C15 12.8954 14.1046 12 13 12C11.8954 12 11 12.8954 11 14C11 15.1046 11.8954 16 13 16ZM13 19C15.7614 19 18 16.7614 18 14C18 11.2386 15.7614 9 13 9C10.2386 9 8 11.2386 8 14C8 16.7614 10.2386 19 13 19Z" fill="white"/>
</svg>
