<svg width="27" height="26" viewBox="0 0 27 26" fill="none" xmlns="http://www.w3.org/2000/svg">
<path d="M13.1006 0.0883112C14.1929 -0.0823711 15.3536 0.224857 16.2411 0.907586C16.8215 1.35136 17.2652 1.99995 17.5383 2.68268C17.6066 2.85337 17.6749 3.02405 17.7773 3.16059C18.0845 3.60437 18.6307 3.84332 19.1427 3.80919C19.3817 3.80919 19.5865 3.70678 19.8255 3.6385C20.7813 3.36541 21.8395 3.46782 22.7271 3.9116C23.5805 4.32123 24.2973 5.07224 24.707 5.95978C25.1166 6.81319 25.1849 7.83729 24.9459 8.75897C24.8777 9.03207 24.7753 9.30516 24.6387 9.57825C24.5363 9.8172 24.3656 10.022 24.2973 10.261C24.1267 10.773 24.2973 11.3875 24.6728 11.7971C24.8435 11.9678 25.0483 12.0702 25.219 12.2409C25.8335 12.6847 26.3114 13.3333 26.5845 14.0501C26.9259 14.9377 26.96 15.9276 26.6528 16.8152C26.4138 17.5662 25.9359 18.283 25.3214 18.7951C24.707 19.273 23.9901 19.5802 23.205 19.6826C22.7612 19.7509 22.3516 19.9899 22.1126 20.3312C21.8737 20.6385 21.8054 21.0481 21.8395 21.4236C21.9078 22.1405 21.8054 22.8915 21.4982 23.5401C21.1568 24.3252 20.5423 25.0079 19.7913 25.4517C19.211 25.7931 18.5966 25.9638 17.9138 25.9979C16.8897 26.032 15.8315 25.6565 15.0464 24.9738C14.8415 24.8031 14.6709 24.5983 14.4319 24.4959C13.8516 24.1887 13.1347 24.2911 12.6568 24.7348C12.3496 25.0421 11.9741 25.3152 11.5986 25.52C11.0183 25.8272 10.3355 25.9638 9.68693 25.9979C9.24316 25.9638 8.79939 25.9296 8.38975 25.7589C7.43393 25.4517 6.61465 24.8031 6.1026 23.9497C5.65883 23.1987 5.45401 22.3111 5.52228 21.4236C5.55642 21.014 5.45401 20.6043 5.21506 20.263C4.94196 19.9216 4.56646 19.7168 4.12269 19.6485C3.26928 19.5461 2.41587 19.1706 1.80141 18.5561C1.08454 17.9075 0.64077 16.9517 0.504224 15.9959C0.401814 15.279 0.504224 14.528 0.811452 13.8453C1.08454 13.1967 1.56245 12.6164 2.14277 12.1726C2.31346 12.0361 2.51828 11.9337 2.65482 11.763C3.03032 11.3875 3.16687 10.8413 3.06446 10.3293C3.03032 10.1244 2.92791 9.95375 2.8255 9.78307C2.41587 9.0662 2.17691 8.24693 2.24518 7.42765C2.27932 6.50597 2.68896 5.61842 3.30341 4.90155C3.8496 4.2871 4.6006 3.80919 5.41988 3.60437C6.06847 3.43368 6.78533 3.43368 7.43393 3.60437C7.67288 3.67264 7.91184 3.77505 8.15079 3.77505C8.69698 3.80919 9.24316 3.53609 9.55039 3.09232C9.6528 2.95577 9.72107 2.78509 9.75521 2.61441C10.0624 1.82927 10.6086 1.14654 11.2913 0.668631C11.8375 0.395539 12.452 0.190721 13.1006 0.0883112ZM13.4078 2.64855C12.9982 2.71682 12.5885 2.95577 12.3496 3.29714C12.1789 3.53609 12.1106 3.80919 12.0082 4.08228C11.5986 4.96983 10.8134 5.72083 9.92589 6.09633C9.07248 6.47183 8.11666 6.5401 7.19497 6.30115C6.99015 6.26701 6.78533 6.1646 6.58051 6.1646C6.30742 6.13047 6.0002 6.1646 5.7271 6.30115C5.28333 6.50597 4.9761 6.9156 4.83956 7.39352C4.77128 7.66661 4.77128 7.97383 4.87369 8.24693C4.9761 8.52002 5.14678 8.72484 5.24919 8.96379C5.76124 9.98789 5.79538 11.2509 5.3516 12.3092C5.07851 12.9919 4.63474 13.5722 4.05442 14.016C3.8496 14.1867 3.61064 14.3232 3.43996 14.4939C3.0986 14.8694 2.99619 15.3814 3.0986 15.8594C3.201 16.3031 3.4741 16.7128 3.8496 16.9176C4.05442 17.02 4.29337 17.0883 4.53233 17.1224C5.31747 17.2248 6.1026 17.5662 6.71706 18.1124C7.43393 18.7268 7.91184 19.6144 8.08252 20.5361C8.15079 20.9116 8.15079 21.3212 8.11666 21.7308C8.08252 22.1063 8.18493 22.516 8.42388 22.7891C8.76525 23.2328 9.34557 23.4718 9.89175 23.4035C10.2331 23.3694 10.5403 23.1987 10.7793 22.9939C10.95 22.8232 11.1548 22.6525 11.3596 22.516C12.1448 21.9698 13.1006 21.6967 14.0223 21.765C14.9781 21.8332 15.8998 22.2429 16.5825 22.8915C16.7532 23.0622 16.958 23.1987 17.197 23.3011C17.709 23.5059 18.2893 23.3694 18.7331 23.0622C19.0403 22.8232 19.2793 22.4477 19.3134 22.0722C19.3476 21.7991 19.2793 21.4919 19.3134 21.2188C19.3134 20.0923 19.7913 18.9658 20.6447 18.1806C21.2592 17.6003 22.0785 17.1907 22.9319 17.0883C23.3415 17.0541 23.717 16.8493 23.9901 16.5421C24.2973 16.1666 24.4339 15.6204 24.2973 15.1425C24.2291 14.767 23.9901 14.4598 23.6829 14.2549C23.4781 14.1184 23.2732 13.9819 23.1026 13.8112C22.4198 13.1967 21.9419 12.3433 21.7712 11.4558C21.6006 10.4999 21.7712 9.47584 22.2833 8.62243C22.454 8.34934 22.5564 8.07624 22.5564 7.76902C22.5564 7.22283 22.2492 6.67665 21.7712 6.36942C21.4982 6.19874 21.1568 6.13047 20.8496 6.13047C20.5765 6.1646 20.3034 6.26701 20.0303 6.33528C19.0745 6.57424 18.0162 6.43769 17.1628 5.95978C16.3777 5.55015 15.7632 4.90155 15.3536 4.11641C15.217 3.84332 15.1488 3.53609 14.9439 3.29714C14.5684 2.78509 13.9881 2.54614 13.4078 2.64855Z" fill="white"/>
<path d="M13.3395 8.75898C14.3295 8.69071 15.3194 8.92967 16.1387 9.44171C16.9238 9.91962 17.5383 10.6365 17.9138 11.4899C18.3576 12.4457 18.4258 13.5722 18.1528 14.5622C17.9138 15.4497 17.4018 16.2349 16.719 16.8493C16.0363 17.4296 15.1829 17.8393 14.2953 17.9417C13.3054 18.0782 12.2471 17.8734 11.3937 17.3955C10.5403 16.9176 9.85759 16.1666 9.44796 15.279C8.97005 14.255 8.90177 13.0602 9.24314 12.0019C9.51623 11.1144 10.0624 10.3293 10.7793 9.74894C11.4961 9.20276 12.4178 8.82726 13.3395 8.75898ZM13.3054 11.0803C12.5885 11.1827 11.9399 11.6606 11.5986 12.3092C11.2231 13.026 11.2572 13.9477 11.701 14.6305C11.9741 15.0742 12.3837 15.4156 12.8957 15.5863C13.3054 15.7228 13.7833 15.757 14.2271 15.6546C14.7732 15.5521 15.2512 15.2108 15.5925 14.767C15.8656 14.4256 16.0022 14.016 16.0363 13.5722C16.0704 13.0602 15.968 12.514 15.6608 12.1044C15.4218 11.7289 15.0463 11.3875 14.6026 11.2168C14.1929 11.0461 13.7492 11.012 13.3054 11.0803Z" fill="white"/>
</svg>
