<svg width="118" height="107" viewBox="0 0 118 107" fill="none" xmlns="http://www.w3.org/2000/svg">
<path fill-rule="evenodd" clip-rule="evenodd" d="M53.499 17.622C66.226 8.12714 84.1654 8.84514 96.104 19.776L112.879 3H99.5C98.6716 3 98 2.32843 98 1.5C98 0.671575 98.6716 0 99.5 0H116.5C117.328 0 118 0.671575 118 1.5V18.5C118 19.3284 117.328 20 116.5 20C115.672 20 115 19.3284 115 18.5V5.1215L98.2253 21.8973C110.261 35.0425 109.915 55.4624 97.1881 68.1896C85.273 80.1047 66.6155 81.168 53.497 71.3795C48.2901 75.2595 41.9176 77.6622 35 77.967V93H46.5C47.3284 93 48 93.6716 48 94.5C48 95.3284 47.3284 96 46.5 96H35V105.5C35 106.328 34.3284 107 33.5 107C32.6716 107 32 106.328 32 105.5V96H20.5C19.6716 96 19 95.3284 19 94.5C19 93.6716 19.6716 93 20.5 93H32V77.967C14.1946 77.1824 0 62.4989 0 44.5C0 25.9985 14.9985 11 33.5 11C40.9963 11 47.9175 13.4622 53.499 17.622ZM51.1021 19.5888C46.1293 16.0686 40.0562 14 33.5 14C16.6553 14 3 27.6553 3 44.5C3 60.8419 15.8523 74.182 32.0004 74.9638C32.4973 74.9878 32.9972 75 33.5 75C34.0028 75 34.5027 74.9878 34.9996 74.9638C40.9804 74.6742 46.5092 72.6619 51.1003 69.4125C50.6628 69.0184 50.2331 68.6108 49.8119 68.1896C36.7294 55.107 36.7294 33.896 49.8119 20.8134C50.2337 20.3916 50.664 19.9834 51.1021 19.5888ZM53.4985 67.529C52.964 67.0638 52.4419 66.5769 51.9332 66.0683C40.0223 54.1573 40.0223 34.8457 51.9332 22.9347C52.4424 22.4255 52.9652 21.9381 53.5003 21.4725C59.933 27.0644 64 35.3072 64 44.5C64 53.6936 59.9323 61.9371 53.4985 67.529ZM55.8956 69.414C62.713 63.2817 67 54.3915 67 44.5C67 34.6094 62.7137 25.7199 55.8974 19.5877C67.4068 11.4352 83.3004 12.206 93.9808 21.9C94.3486 22.2338 94.7102 22.5782 95.0652 22.9332L95.0668 22.9347C95.4223 23.2903 95.7672 23.6524 96.1015 24.0207C106.967 35.992 106.622 54.5128 95.0668 66.0683C84.4013 76.7337 67.802 77.849 55.8956 69.414Z" fill="#7256E3"/>
</svg>
