<svg width="386" height="430" viewBox="0 0 386 430" fill="none" xmlns="http://www.w3.org/2000/svg">
<g opacity="0.1" filter="url(#filter0_d)">
<path d="M354.042 88.2484L211.96 6.30346C204.972 2.32233 196.986 0 189 0C181.014 0 173.028 2.32233 166.041 6.30346L23.9577 88.2484C8.98415 96.5425 0 112.135 0 129.387V292.945C0 309.865 8.98415 325.789 23.9577 334.083L166.041 415.697C173.028 419.678 181.014 422 189 422C196.986 422 204.972 419.678 211.96 415.697L354.042 334.083C368.683 325.458 378 309.865 378 292.945V129.387C378 112.135 368.683 96.5425 354.042 88.2484Z" transform="translate(4)" fill="#B5B5B5"/>
</g>
<defs>
<filter id="filter0_d" x="0" y="0" width="386" height="430" filterUnits="userSpaceOnUse" color-interpolation-filters="sRGB">
<feFlood flood-opacity="0" result="BackgroundImageFix"/>
<feColorMatrix in="SourceAlpha" type="matrix" values="0 0 0 0 0 0 0 0 0 0 0 0 0 0 0 0 0 0 255 0"/>
<feOffset dy="4"/>
<feGaussianBlur stdDeviation="2"/>
<feColorMatrix type="matrix" values="0 0 0 0 0 0 0 0 0 0 0 0 0 0 0 0 0 0 0.25 0"/>
<feBlend mode="normal" in2="BackgroundImageFix" result="effect1_dropShadow"/>
<feBlend mode="normal" in="SourceGraphic" in2="effect1_dropShadow" result="shape"/>
</filter>
</defs>
</svg>
