<svg width="170" height="190" viewBox="0 0 170 190" fill="none" xmlns="http://www.w3.org/2000/svg">
<g id="Group">
<g id="Group_2">
<path id="Vector" d="M159.225 39.7327L95.3257 2.83805C92.1831 1.0456 88.5916 0 85 0C81.4084 0 77.8169 1.0456 74.6743 2.83805L10.7746 39.7327C4.04049 43.467 0 50.4874 0 58.2547V131.895C0 139.513 4.04049 146.682 10.7746 150.417L74.6743 187.162C77.8169 188.954 81.4084 190 85 190C88.5916 190 92.1831 188.954 95.3257 187.162L159.225 150.417C165.81 146.533 170 139.513 170 131.895V58.2547C170 50.4874 165.81 43.467 159.225 39.7327Z" fill="white"/>
</g>
</g>
</svg>
