<svg width="100" height="28" viewBox="0 0 100 28" fill="none" xmlns="http://www.w3.org/2000/svg">
<path d="M10.3951 0.572913C11.6976 -0.190971 13.3024 -0.190971 14.6049 0.572913L22.8951 5.43477C24.1976 6.19866 25 7.61037 25 9.13814V18.8619C25 20.3896 24.1976 21.8013 22.8951 22.5652L14.6049 27.4271C13.3024 28.191 11.6976 28.191 10.3951 27.4271L2.10492 22.5652C0.802392 21.8013 0 20.3896 0 18.8619V9.13814C0 7.61037 0.802392 6.19866 2.10492 5.43477L10.3951 0.572913Z" fill="#7256E3"/>
<path d="M38.3968 16.25V21H35V7H40.6226C41.7001 7 42.6517 7.19872 43.4775 7.59615C44.3098 7.98718 44.9517 8.54808 45.4033 9.27885C45.8614 10.0032 46.0904 10.8269 46.0904 11.75C46.0904 13.1154 45.5969 14.2083 44.6098 15.0288C43.6291 15.8429 42.2807 16.25 40.5646 16.25H38.3968ZM38.3968 13.6442H40.6226C41.2807 13.6442 41.7807 13.4808 42.1227 13.1538C42.471 12.8269 42.6452 12.3654 42.6452 11.7692C42.6452 11.1154 42.4678 10.5929 42.113 10.2019C41.7581 9.8109 41.2743 9.61218 40.6613 9.60577H38.3968V13.6442Z" fill="#7256E3"/>
<path d="M55.1815 18.3846H50.5266L49.7137 21H46.0846L51.2524 7H54.446L59.6525 21H56.0041L55.1815 18.3846ZM51.3395 15.7788H54.3686L52.8492 10.9231L51.3395 15.7788Z" fill="#7256E3"/>
<path d="M66.9145 16.0577H65.0758V21H61.679V7H67.2242C68.8952 7 70.2016 7.36859 71.1436 8.10577C72.0855 8.84295 72.5565 9.88462 72.5565 11.2308C72.5565 12.2051 72.3565 13.0128 71.9565 13.6538C71.5629 14.2949 70.9436 14.8141 70.0984 15.2115L73.0404 20.8558V21H69.4016L66.9145 16.0577ZM65.0758 13.4519H67.2242C67.8694 13.4519 68.3532 13.2853 68.6758 12.9519C69.0049 12.6122 69.1694 12.141 69.1694 11.5385C69.1694 10.9359 69.0049 10.4647 68.6758 10.125C68.3468 9.77885 67.8629 9.60577 67.2242 9.60577H65.0758V13.4519Z" fill="#7256E3"/>
<path d="M78.9959 18.4038H84.9089V21H75.5991V7H78.9959V18.4038Z" fill="#7256E3"/>
<path d="M95.529 18.3846H90.8741L90.0612 21H86.4321L91.5999 7H94.7935L100 21H96.3516L95.529 18.3846ZM91.687 15.7788H94.7161L93.1967 10.9231L91.687 15.7788Z" fill="#7256E3"/>
</svg>
