<svg width="30" height="27" viewBox="0 0 30 27" version="1.1" xmlns="http://www.w3.org/2000/svg" xmlns:xlink="http://www.w3.org/1999/xlink">
<g id="Canvas" fill="none">
<g id="Group">
<path id="Vector" d="M 2.95109 20.0299C 4.04585 20.0299 4.99781 19.4547 5.52139 18.614L 8.94847 19.9414L 8.71047 22.5963C 8.66288 23.1272 8.94847 23.6582 9.42445 23.9679C 9.56724 24.0564 9.71004 24.1007 9.80523 24.1449L 16.0882 26.136C 16.2786 26.1803 16.4214 26.2245 16.6118 26.2245C 17.1354 26.2245 17.6589 25.959 17.9921 25.5166L 19.1345 23.8794L 25.6078 26.4015C 25.941 26.5343 26.2742 26.6228 26.6074 26.6228C 26.9882 26.6228 27.369 26.5343 27.7022 26.313C 28.2733 25.959 28.6065 25.2953 28.6065 24.5431L 28.6065 2.06551C 28.6065 1.31331 28.2733 0.6496 27.7022 0.295622C 27.131 -0.0583566 26.3694 -0.102604 25.6078 0.207127L 5.52139 8.12739C 4.99781 7.28669 4.04585 6.71148 2.95109 6.71148C 1.33275 6.71148 0 7.9504 0 9.45481L 0 17.3308C 0 18.8352 1.33275 20.0299 2.95109 20.0299ZM 16.8498 24.9414C 16.7546 25.0299 16.6118 25.0741 16.5166 25.0741L 10.2336 23.083C 10.2336 23.083 10.186 23.083 10.186 23.0387C 10.0908 22.9945 10.0432 22.8617 10.0432 22.7732L 10.2336 20.5166L 17.8969 23.5254L 16.8498 24.9414ZM 5.85458 9.32207L 26.0838 1.4018C 26.417 1.26906 26.7502 1.26906 26.9406 1.4018C 27.131 1.53455 27.2738 1.80003 27.2738 2.15401L 27.2738 24.6316C 27.2738 24.9856 27.1786 25.2511 26.9406 25.3838C 26.7502 25.5166 26.417 25.5166 26.0838 25.3838L 5.85458 17.4636C 5.85458 17.4193 5.85458 17.3751 5.85458 17.3308L 5.85458 9.45481C 5.90218 9.41056 5.85458 9.36631 5.85458 9.32207ZM 1.33275 9.45481C 1.33275 8.61411 2.04672 7.9504 2.95109 7.9504C 3.85546 7.9504 4.56943 8.61411 4.56943 9.45481L 4.56943 17.3308C 4.56943 18.1715 3.85546 18.8352 2.95109 18.8352C 2.04672 18.8352 1.33275 18.1715 1.33275 17.3308L 1.33275 9.45481Z" transform="translate(0.41626 0)" fill="black"/>
<path id="Vector_2" d="M 0.626316 6.99808C 0.721512 6.99808 0.816709 6.99808 0.864307 6.95383L 15.6674 1.15744C 16.0005 1.0247 16.1433 0.670717 16.0005 0.360986C 15.8577 0.0512555 15.477 -0.0814867 15.1438 0.0512552L 0.388325 5.8034C 0.0551374 5.93614 -0.0876577 6.29012 0.055137 6.59985C 0.102735 6.86534 0.388325 6.99808 0.626316 6.99808Z" transform="translate(8.92896 4.62485)" fill="black"/>
</g>
</g>
</svg>
