<svg width="26" height="19" viewBox="0 0 26 19" fill="none" xmlns="http://www.w3.org/2000/svg">
<path fill-rule="evenodd" clip-rule="evenodd" d="M25.3976 1.5C25.3976 2.32843 24.726 3 23.8976 3H1.89758C1.06916 3 0.397583 2.32843 0.397583 1.5C0.397583 0.671573 1.06916 0 1.89758 0H23.8976C24.726 0 25.3976 0.671573 25.3976 1.5Z" fill="black"/>
<path fill-rule="evenodd" clip-rule="evenodd" d="M25.3976 9.5C25.3976 10.3284 24.726 11 23.8976 11H1.89758C1.06916 11 0.397583 10.3284 0.397583 9.5C0.397583 8.67157 1.06916 8 1.89758 8H23.8976C24.726 8 25.3976 8.67157 25.3976 9.5Z" fill="black"/>
<path fill-rule="evenodd" clip-rule="evenodd" d="M25.3976 17.5C25.3976 18.3284 24.726 19 23.8976 19H1.89758C1.06916 19 0.397583 18.3284 0.397583 17.5C0.397583 16.6716 1.06916 16 1.89758 16H23.8976C24.726 16 25.3976 16.6716 25.3976 17.5Z" fill="black"/>
</svg>
