<svg width="100" height="100" viewBox="0 0 100 100" fill="none" xmlns="http://www.w3.org/2000/svg">
<path fill-rule="evenodd" clip-rule="evenodd" d="M45.099 0.23725C46.7119 0.0802861 48.3468 0 50 0C51.6532 0 53.2881 0.0802859 54.901 0.23725C55.7255 0.317494 56.3289 1.05096 56.2486 1.87549C56.1684 2.70002 55.4349 3.30339 54.6104 3.22314C53.0939 3.07556 51.556 3 50 3C48.444 3 46.906 3.07556 45.3896 3.22314C44.5651 3.30339 43.8316 2.70002 43.7514 1.87549C43.6711 1.05096 44.2745 0.317495 45.099 0.23725ZM62.648 3.14151C62.8882 2.34867 63.7257 1.90067 64.5185 2.14088C67.6815 3.09918 70.7118 4.36231 73.575 5.89593C74.3053 6.28707 74.5802 7.19616 74.1891 7.92643C73.7979 8.6567 72.8888 8.93162 72.1586 8.54047C69.4676 7.09913 66.6203 5.91231 63.6486 5.012C62.8558 4.77179 62.4078 3.93435 62.648 3.14151ZM37.352 3.14151C37.5922 3.93435 37.1442 4.7718 36.3514 5.012C33.3797 5.91231 30.5324 7.09913 27.8414 8.54047C27.1112 8.93162 26.2021 8.65671 25.8109 7.92643C25.4198 7.19616 25.6947 6.28708 26.425 5.89593C29.2882 4.36231 32.3185 3.09918 35.4815 2.14088C36.2743 1.90068 37.1118 2.34867 37.352 3.14151ZM79.6096 11.5553C80.1355 10.9152 81.0807 10.8227 81.7208 11.3486C84.2507 13.4272 86.5728 15.7493 88.6514 18.2792C89.1773 18.9193 89.0848 19.8645 88.4447 20.3904C87.8046 20.9163 86.8594 20.8238 86.3335 20.1837C84.3789 17.8048 82.1952 15.6211 79.8163 13.6665C79.1762 13.1406 79.0837 12.1954 79.6096 11.5553ZM20.3904 11.5553C20.9163 12.1954 20.8238 13.1406 20.1837 13.6665C17.8048 15.6211 15.6211 17.8048 13.6665 20.1837C13.1406 20.8238 12.1954 20.9163 11.5553 20.3904C10.9152 19.8645 10.8227 18.9193 11.3486 18.2792C13.4272 15.7493 15.7493 13.4272 18.2792 11.3486C18.9193 10.8227 19.8645 10.9152 20.3904 11.5553ZM92.0736 25.8109C92.8038 25.4198 93.7129 25.6947 94.1041 26.425C95.6377 29.2882 96.9008 32.3185 97.8591 35.4815C98.0993 36.2743 97.6513 37.1118 96.8585 37.352C96.0657 37.5922 95.2282 37.1442 94.988 36.3514C94.0877 33.3797 92.9009 30.5324 91.4595 27.8414C91.0684 27.1112 91.3433 26.2021 92.0736 25.8109ZM7.92643 25.8109C8.6567 26.2021 8.93162 27.1112 8.54047 27.8414C7.09913 30.5324 5.91231 33.3797 5.012 36.3514C4.77179 37.1442 3.93435 37.5922 3.14151 37.352C2.34867 37.1118 1.90067 36.2743 2.14088 35.4815C3.09918 32.3185 4.36231 29.2882 5.89593 26.425C6.28707 25.6947 7.19616 25.4198 7.92643 25.8109ZM98.1245 43.7514C98.949 43.6711 99.6825 44.2745 99.7627 45.099C99.9197 46.7119 100 48.3468 100 50C100 51.6532 99.9197 53.2881 99.7627 54.901C99.6825 55.7255 98.949 56.3289 98.1245 56.2486C97.3 56.1684 96.6966 55.4349 96.7769 54.6104C96.9244 53.0939 97 51.556 97 50C97 48.444 96.9244 46.906 96.7769 45.3896C96.6966 44.5651 97.3 43.8316 98.1245 43.7514ZM1.87549 43.7514C2.70002 43.8316 3.30339 44.5651 3.22314 45.3896C3.07556 46.9061 3 48.444 3 50C3 51.556 3.07556 53.094 3.22314 54.6104C3.30339 55.4349 2.70002 56.1684 1.87549 56.2486C1.05096 56.3289 0.317495 55.7255 0.23725 54.901C0.0802861 53.2881 0 51.6532 0 50C0 48.3468 0.0802859 46.7119 0.23725 45.099C0.317494 44.2745 1.05096 43.6711 1.87549 43.7514ZM96.8585 62.648C97.6513 62.8882 98.0993 63.7257 97.8591 64.5185C96.9008 67.6815 95.6377 70.7118 94.1041 73.575C93.7129 74.3053 92.8038 74.5802 92.0736 74.1891C91.3433 73.7979 91.0684 72.8888 91.4595 72.1586C92.9009 69.4676 94.0877 66.6203 94.988 63.6486C95.2282 62.8558 96.0657 62.4078 96.8585 62.648ZM3.14151 62.648C3.93435 62.4078 4.7718 62.8558 5.012 63.6486C5.91231 66.6203 7.09913 69.4676 8.54047 72.1586C8.93162 72.8888 8.65671 73.7979 7.92643 74.1891C7.19616 74.5802 6.28708 74.3053 5.89593 73.575C4.36231 70.7118 3.09918 67.6815 2.14088 64.5185C1.90068 63.7257 2.34867 62.8882 3.14151 62.648ZM88.4447 79.6096C89.0848 80.1355 89.1773 81.0807 88.6514 81.7208C86.5728 84.2507 84.2507 86.5728 81.7208 88.6514C81.0807 89.1773 80.1355 89.0848 79.6096 88.4447C79.0837 87.8046 79.1762 86.8594 79.8163 86.3335C82.1952 84.3789 84.3789 82.1952 86.3335 79.8163C86.8594 79.1762 87.8046 79.0837 88.4447 79.6096ZM11.5553 79.6096C12.1954 79.0837 13.1406 79.1762 13.6665 79.8163C15.6211 82.1952 17.8048 84.3789 20.1837 86.3335C20.8238 86.8594 20.9163 87.8046 20.3904 88.4447C19.8645 89.0848 18.9193 89.1773 18.2792 88.6514C15.7493 86.5728 13.4272 84.2507 11.3486 81.7208C10.8227 81.0807 10.9152 80.1355 11.5553 79.6096ZM25.8109 92.0736C26.2021 91.3433 27.1112 91.0684 27.8414 91.4595C30.5324 92.9009 33.3797 94.0877 36.3514 94.988C37.1442 95.2282 37.5922 96.0657 37.352 96.8585C37.1118 97.6513 36.2743 98.0993 35.4815 97.8591C32.3185 96.9008 29.2882 95.6377 26.425 94.1041C25.6947 93.7129 25.4198 92.8038 25.8109 92.0736ZM74.1891 92.0736C74.5802 92.8038 74.3053 93.7129 73.575 94.1041C70.7118 95.6377 67.6815 96.9008 64.5185 97.8591C63.7257 98.0993 62.8882 97.6513 62.648 96.8585C62.4078 96.0657 62.8558 95.2282 63.6486 94.988C66.6203 94.0877 69.4676 92.9009 72.1586 91.4595C72.8888 91.0684 73.7979 91.3433 74.1891 92.0736ZM43.7514 98.1245C43.8316 97.3 44.5651 96.6966 45.3896 96.7769C46.9061 96.9244 48.444 97 50 97C51.556 97 53.094 96.9244 54.6104 96.7769C55.4349 96.6966 56.1684 97.3 56.2486 98.1245C56.3289 98.949 55.7255 99.6825 54.901 99.7627C53.2881 99.9197 51.6532 100 50 100C48.3468 100 46.7119 99.9197 45.099 99.7627C44.2745 99.6825 43.6711 98.949 43.7514 98.1245Z" fill="#7256E3"/>
</svg>
