<svg width="93" height="98" viewBox="0 0 93 98" fill="none" xmlns="http://www.w3.org/2000/svg">
<path fill-rule="evenodd" clip-rule="evenodd" d="M20.2768 1.59039C21.4682 0.613047 23.0262 0 24.987 0C26.9477 0 28.5058 0.613047 29.6972 1.59039C30.8631 2.54687 31.5982 3.78523 32.0655 4.93543C32.5339 6.08819 32.7611 7.21983 32.8734 8.04871C32.9378 8.52451 33 9.01836 33 9.5C33 10.3284 32.3168 11 31.4882 11H29.9961V14H91.4997C92.3283 14 93 14.6716 93 15.5V53.5C93 54.3284 92.3283 55 91.4997 55H29.9961V83H36.4892C37.3178 83 37.9895 83.6716 37.9895 84.5V89H42.9897C43.4102 89 43.8115 89.1765 44.0956 89.4864L49.5966 95.4864C49.9987 95.9249 50.1035 96.5595 49.864 97.104C49.6244 97.6485 49.0857 98 48.4907 98H1.50032C0.905352 98 0.3666 97.6485 0.127031 97.104C-0.112539 96.5595 -0.00765556 95.9249 0.394379 95.4864L5.89549 89.4864C6.17965 89.1765 6.58089 89 7.00142 89H11.9846V84.5C11.9846 83.6716 12.6563 83 13.4848 83H20V11H18.4857C17.6572 11 17.0007 10.3284 17.0007 9.5C17.0007 9.01211 17.035 8.53335 17.1006 8.04871C17.2129 7.21983 17.44 6.08819 17.9084 4.93543C18.3758 3.78523 19.1109 2.54687 20.2768 1.59039ZM20.1445 8H29.8295C29.7257 7.41298 29.5569 6.73222 29.2856 6.06457C28.9403 5.21477 28.4564 4.45313 27.7939 3.90961C27.1568 3.38695 26.2769 3 24.987 3C23.6971 3 22.8172 3.38695 22.1801 3.90961C21.5176 4.45313 21.0337 5.21477 20.6884 6.06457C20.4171 6.73222 20.2483 7.41298 20.1445 8ZM26.9955 11H22.9948V83H26.9955V11ZM14.9851 89H34.989V86H14.9851V89ZM29.9961 52H89.9994V35H86.4988C85.6702 35 84.9985 34.3284 84.9985 33.5C84.9985 32.6716 85.6702 32 86.4988 32H89.9994V17H29.9961V46H41.4901C42.3187 46 42.9904 46.6716 42.9904 47.5C42.9904 48.3284 42.3187 49 41.4901 49H29.9961V52ZM72.4961 33.5C72.4961 32.6716 73.1678 32 73.9964 32H80.4976C81.3262 32 81.9979 32.6716 81.9979 33.5C81.9979 34.3284 81.3262 35 80.4976 35H73.9964C73.1678 35 72.4961 34.3284 72.4961 33.5ZM45.991 47.5C45.991 46.6716 46.6627 46 47.4913 46H52.4923C53.3208 46 53.9925 46.6716 53.9925 47.5C53.9925 48.3284 53.3208 49 52.4923 49H47.4913C46.6627 49 45.991 48.3284 45.991 47.5ZM7.6614 92L4.91085 95H45.0802L42.3297 92H7.6614Z" fill="#7256E3"/>
</svg>
