<svg width="56" height="114" viewBox="0 0 56 114" fill="none" xmlns="http://www.w3.org/2000/svg">
<path fill-rule="evenodd" clip-rule="evenodd" d="M25 59C22.2386 59 20 61.2386 20 64C20 66.7614 22.2386 69 25 69H32.5C35.2614 69 37.5 66.7614 37.5 64C37.5 61.2386 35.2614 59 32.5 59H25ZM23 64C23 62.8954 23.8954 62 25 62H32.5C33.6046 62 34.5 62.8954 34.5 64C34.5 65.1046 33.6046 66 32.5 66H25C23.8954 66 23 65.1046 23 64Z" fill="#7256E3"/>
<path fill-rule="evenodd" clip-rule="evenodd" d="M40 12C40 15.935 38.106 19.4276 35.1799 21.6159C35.2299 21.7985 35.2899 22.0001 35.3605 22.2119C35.618 22.9842 35.9676 23.7383 36.3879 24.2469L39.455 25.5617C42.2123 26.7436 44 29.455 44 32.455V36.9995L53.5 36.9993C53.8978 36.9993 54.2793 37.1574 54.5607 37.4387C54.842 37.72 55 38.1015 55 38.4993V46.4989C55 46.8023 54.908 47.0986 54.7361 47.3486L44 62.9647V99.9993H49.5C50.3284 99.9993 51 100.671 51 101.499V110.999H54.5C55.3284 110.999 56 111.671 56 112.499C56 113.328 55.3284 113.999 54.5 113.999H1.5C0.671573 113.999 0 113.328 0 112.499C0 111.671 0.671573 110.999 1.5 110.999H5V101.499C5 100.671 5.67157 99.9993 6.5 99.9993H12V62.9647L1.26394 47.3486C1.09203 47.0986 1 46.8023 1 46.4989V38.4993C1 38.1015 1.15804 37.72 1.43934 37.4387C1.72065 37.1574 2.10218 36.9993 2.50001 36.9993L4 36.9994V30.499C4 27.3299 4.52876 25.1382 5.10729 23.6919C5.29758 23.2162 5.49214 22.824 5.67278 22.5067C5.24496 21.7697 5 20.9135 5 20C5 17.2386 7.23858 15 10 15C12.7614 15 15 17.2386 15 20C15 22.7614 12.7614 25 10 25C9.28417 25 8.60348 24.8496 7.98781 24.5786C7.95648 24.6503 7.92471 24.7261 7.89271 24.8061C7.47124 25.8598 7 27.6681 7 30.499V36.9995L12 36.9997V32.456C12 29.4563 13.7874 26.7451 16.5443 25.5629L19.6121 24.2475C20.0324 23.7389 20.3821 22.9849 20.6395 22.2128C20.7103 22.0007 20.7703 21.7988 20.8204 21.6161C17.8941 19.4278 16 15.9351 16 12C16 5.37258 21.3726 0 28 0C34.6274 0 40 5.37258 40 12ZM37 12C37 16.9706 32.9706 21 28 21C23.0294 21 19 16.9706 19 12C19 7.02944 23.0294 3 28 3C32.9706 3 37 7.02944 37 12ZM28 24C29.5925 24 31.1126 23.6898 32.5031 23.1265L32.5145 23.1607C32.7064 23.7365 32.9835 24.4444 33.3758 25.1328C31.3214 26.4363 29.6118 26.9989 28 26.9989C26.3881 26.9989 24.6786 26.4365 22.6243 25.1333C23.0165 24.4451 23.2936 23.7374 23.4855 23.1618L23.4972 23.1266C24.8876 23.6898 26.4076 24 28 24ZM12 20C12 21.1046 11.1046 22 10 22C8.89543 22 8 21.1046 8 20C8 18.8954 8.89543 18 10 18C11.1046 18 12 18.8954 12 20ZM20.3207 27.2078L17.7266 28.3201C16.0724 29.0294 15 30.6561 15 32.456V36.9998L41 36.9995V32.455C41 30.655 39.9274 29.0282 38.273 28.319L35.681 27.2079C33.0687 28.9911 30.593 30.0002 27.9998 29.9999C25.4073 29.9996 22.9323 28.9904 20.3207 27.2078ZM13.5562 39.9998C13.5375 40.0005 13.5188 40.0009 13.5 40.0009C13.4812 40.0009 13.4624 40.0005 13.4438 39.9998L4 39.9994V44.9989H40.5C41.3284 44.9989 42 45.6704 42 46.4989C42 47.3273 41.3284 47.9989 40.5 47.9989H5.35155L12 57.6693V53.4989C12 52.6704 12.6716 51.9989 13.5 51.9989H42.5C43.3284 51.9989 44 52.6704 44 53.4989V57.6693L50.6485 47.9989H48.5C47.6716 47.9989 47 47.3273 47 46.4989C47 45.6704 47.6716 44.9989 48.5 44.9989H52V39.9994L13.5562 39.9998ZM41 99.9993V54.9989H15V99.9993H41ZM48 110.999V102.999H8V110.999H48Z" fill="#7256E3"/>
</svg>
