<svg width="14" height="24" viewBox="0 0 14 24" fill="none" xmlns="http://www.w3.org/2000/svg">
<path d="M3.05106 23.0702C2.46002 23.6507 1.51031 23.6421 0.929827 23.0511C0.349342 22.46 0.357899 21.5103 0.948939 20.9298L3.05106 23.0702ZM12 12.1786L13.0511 11.1084C13.3382 11.3905 13.5 11.7761 13.5 12.1786C13.5 12.5811 13.3382 12.9667 13.0511 13.2488L12 12.1786ZM0.948937 3.42731C0.357898 2.84683 0.349343 1.89712 0.929829 1.30608C1.51032 0.71504 2.46002 0.706486 3.05106 1.28697L0.948937 3.42731ZM0.948939 20.9298L10.9489 11.1084L13.0511 13.2488L3.05106 23.0702L0.948939 20.9298ZM10.9489 13.2488L0.948937 3.42731L3.05106 1.28697L13.0511 11.1084L10.9489 13.2488Z" fill="black"/>
</svg>
