<svg width="204" height="17" viewBox="0 0 204 17" fill="none" xmlns="http://www.w3.org/2000/svg">
<path fill-rule="evenodd" clip-rule="evenodd" d="M87 8.5C87 3.77889 90.9298 0 95.7169 0C98.7446 0 101.421 1.50711 102.984 3.8048C103.141 4.03467 103.195 4.31931 103.133 4.59038C103.071 4.86145 102.899 5.09447 102.658 5.2335L97 8.5L102.658 11.7665C102.899 11.9055 103.071 12.1386 103.133 12.4096C103.195 12.6807 103.141 12.9653 102.984 13.1952C101.421 15.4929 98.7446 17 95.7169 17C90.9298 17 87 13.2211 87 8.5ZM95.7169 2C91.9802 2 89 4.93684 89 8.5C89 12.0632 91.9802 15 95.7169 15C97.6699 15 99.4221 14.1948 100.647 12.9148L94.5 9.36602C94.1906 9.18739 94 8.85727 94 8.5C94 8.14273 94.1906 7.81261 94.5 7.63397L100.647 4.08516C99.4221 2.80524 97.6699 2 95.7169 2Z" fill="#7256E3"/>
<path fill-rule="evenodd" clip-rule="evenodd" d="M116 8.50717C116.001 6.94613 115.735 5.35763 115.167 3.24638C115.024 2.71306 115.34 2.1644 115.873 2.02091C116.407 1.87743 116.955 2.19346 117.099 2.72678C117.691 4.92787 118.001 6.70442 118 8.50843C117.999 10.312 117.687 12.0879 117.099 14.2871C116.957 14.8206 116.409 15.1377 115.875 14.9952C115.341 14.8527 115.024 14.3046 115.167 13.771C115.731 11.6578 115.999 10.0687 116 8.50717Z" fill="#7256E3"/>
<path fill-rule="evenodd" clip-rule="evenodd" d="M111.706 8.50735C111.707 7.5801 111.561 6.62778 111.239 5.33776C111.106 4.80186 111.432 4.25917 111.968 4.12562C112.504 3.99207 113.047 4.31823 113.18 4.85412C113.523 6.22903 113.707 7.35623 113.706 8.50851C113.705 9.66035 113.52 10.787 113.18 12.1601C113.048 12.6962 112.506 13.0233 111.97 12.8907C111.433 12.758 111.106 12.2159 111.239 11.6798C111.559 10.3879 111.706 9.43503 111.706 8.50735Z" fill="#7256E3"/>
<path fill-rule="evenodd" clip-rule="evenodd" d="M107.356 10.0576C107.511 8.83165 107.512 8.18247 107.357 6.95853C107.287 6.41064 107.675 5.91012 108.223 5.84058C108.771 5.77105 109.271 6.15883 109.341 6.70672C109.517 8.09926 109.516 8.91704 109.341 10.3076C109.272 10.8555 108.772 11.2438 108.224 11.1747C107.676 11.1057 107.287 10.6055 107.356 10.0576Z" fill="#7256E3"/>
<path fill-rule="evenodd" clip-rule="evenodd" d="M0 9C0 8.44772 0.447715 8 1 8H71C71.5523 8 72 8.44772 72 9C72 9.55228 71.5523 10 71 10H1C0.447715 10 0 9.55228 0 9Z" fill="#7256E3"/>
<path fill-rule="evenodd" clip-rule="evenodd" d="M132 9C132 8.44772 132.448 8 133 8H203C203.552 8 204 8.44772 204 9C204 9.55228 203.552 10 203 10H133C132.448 10 132 9.55228 132 9Z" fill="#7256E3"/>
</svg>
