<svg width="204" height="17" viewBox="0 0 204 17" fill="none" xmlns="http://www.w3.org/2000/svg">
<path fill-rule="evenodd" clip-rule="evenodd" d="M0 9C0 8.44772 0.447715 8 1 8H71C71.5523 8 72 8.44772 72 9C72 9.55228 71.5523 10 71 10H1C0.447715 10 0 9.55228 0 9Z" fill="#7256E3"/>
<path fill-rule="evenodd" clip-rule="evenodd" d="M132 9C132 8.44772 132.448 8 133 8H203C203.552 8 204 8.44772 204 9C204 9.55228 203.552 10 203 10H133C132.448 10 132 9.55228 132 9Z" fill="#7256E3"/>
<path d="M108.113 3.34591L102.85 0.238994C102.592 0.0880503 102.296 0 102 0C101.704 0 101.408 0.0880503 101.15 0.238994L95.8873 3.34591C95.3327 3.66038 95 4.25157 95 4.90566V11.1069C95 11.7484 95.3327 12.3522 95.8873 12.6667L101.15 15.761C101.408 15.912 101.704 16 102 16C102.296 16 102.592 15.912 102.85 15.761L108.113 12.6667C108.655 12.3396 109 11.7484 109 11.1069V4.90566C109 4.25157 108.655 3.66038 108.113 3.34591Z" fill="#7256E3"/>
</svg>
