<svg width="97" height="102" viewBox="0 0 97 102" fill="none" xmlns="http://www.w3.org/2000/svg">
<path fill-rule="evenodd" clip-rule="evenodd" d="M34.0487 3.59377C33.6393 3.8392 33.087 4.17024 32.5328 4.38087C32.0235 4.57444 31.5646 4.91172 30.9505 5.36307C30.8417 5.44303 30.7281 5.52658 30.6084 5.61354C30.2543 5.8708 29.8254 6.16969 29.3637 6.39101C28.8941 6.61612 28.2904 6.81101 27.6007 6.74798C27.3082 6.72125 27.0173 6.6848 26.7267 6.6484C26.2099 6.58364 25.6943 6.51905 25.1738 6.50964C25.2274 6.62686 25.2855 6.74739 25.3506 6.88255C25.4132 7.01258 25.4824 7.15614 25.5605 7.32335C25.9214 8.09685 26.4846 9.37856 26.1426 10.7747C25.72 12.5002 24.1771 13.0626 23.1751 13.2531C22.3101 13.4176 21.3502 13.4036 20.7748 13.3952C20.6682 13.3936 20.5749 13.3923 20.4978 13.3923C19.9298 13.3923 19.2186 13.192 18.6429 13.0119C18.0007 12.811 17.2588 12.5439 16.5342 12.2802C16.4749 12.2587 16.4159 12.2372 16.3572 12.2158C14.8904 11.6818 13.609 11.2152 12.9122 11.0942C12.3044 10.9887 11.8712 11.1022 11.6113 11.2769C11.3826 11.4305 11.1163 11.744 11.0419 12.4464C11.0265 12.5919 11.06 12.8439 11.2655 13.2877C11.439 13.6623 11.6664 14.0378 11.9458 14.499C12.0053 14.5973 12.0672 14.6994 12.1314 14.8063C12.465 15.3615 12.8639 16.0494 13.1061 16.7849C13.3576 17.549 13.4749 18.4658 13.1318 19.4296C12.8603 20.1926 12.9033 21.0777 12.9878 22.2599L12.9905 22.2968C13.0285 22.8276 13.0728 23.4466 13.0427 24.0343C13.0116 24.6421 12.8976 25.3502 12.5233 26.0117C11.825 27.2462 10.6728 27.8077 9.68579 28.0985C8.97478 28.3081 8.16118 28.4217 7.54624 28.5075C7.35933 28.5336 7.19078 28.5572 7.04904 28.5801C5.86309 28.7715 4.70939 29.5273 4.29743 30.2375C4.29327 30.2465 4.26756 30.3023 4.23443 30.4285C4.19703 30.5709 4.16112 30.7607 4.13008 31.0023C4.06765 31.4885 4.03596 32.0942 4.02228 32.7841C4.00975 33.4159 4.01274 34.0828 4.01576 34.7568C4.01602 34.815 4.01629 34.8732 4.01654 34.9315C4.01965 35.6536 4.02132 36.3856 3.99908 37.0373C3.99358 37.1983 4.06971 37.5358 4.42908 38.0604C4.7737 38.5635 5.28734 39.1041 5.89938 39.6295C7.15369 40.7063 8.55071 41.4941 9.14985 41.6938C9.78978 41.9072 10.3176 42.2499 10.74 42.5627C10.9523 42.7199 11.1561 42.8837 11.3373 43.0296L11.3692 43.0553C11.5443 43.1965 11.6992 43.3213 11.8562 43.4401C12.5021 43.929 12.9565 44.1374 13.5558 44.0836C13.6591 44.0743 13.8726 44.0076 14.2421 43.666C14.6147 43.3214 14.9844 42.8532 15.444 42.2625L15.4852 42.2096C15.8981 41.6787 16.4006 41.0327 16.9561 40.5239C17.5323 39.9962 18.3573 39.4337 19.4289 39.4106C20.9543 39.3776 22.2368 39.9773 23.0208 41.1693C23.744 42.2688 23.9014 43.6593 23.7703 45.0001C23.7456 45.2524 23.9733 45.9301 25.2628 46.7412C26.4353 47.4786 28.0539 48.0212 29.5812 48.1445C31.5125 48.3005 33.0105 48.7588 34.1198 50.1862C34.6176 50.8267 34.9818 51.5939 35.3047 52.4333C35.628 53.2738 35.9465 54.2881 36.3118 55.4557C36.6383 56.4994 36.9528 56.8757 37.1107 57.0112C37.2315 57.1148 37.3592 57.1699 37.7018 57.2045C37.7942 57.2139 37.8908 57.2208 38.011 57.229L38.0329 57.2305C38.1414 57.238 38.2722 57.2469 38.404 57.2596C38.6861 57.2867 39.0508 57.3369 39.4347 57.4714C40.3038 57.776 40.9865 58.4089 41.463 59.4249C42.3705 61.3598 41.943 63.535 41.5781 65.0868C41.5065 65.3913 41.4374 65.6698 41.3726 65.9308C41.2518 66.4179 41.1459 66.8444 41.067 67.2667C40.9447 67.9207 40.9582 68.2466 40.9979 68.3886C41.0923 68.7268 41.4851 69.1302 42.4066 69.6447C42.6126 69.7597 42.8225 69.8688 43.0402 69.9809C43.0643 69.9933 43.0887 70.0059 43.1133 70.0185C43.3023 70.1158 43.5037 70.2194 43.6882 70.3207C43.8948 70.434 44.1258 70.5688 44.3372 70.7229C44.5332 70.8659 44.8164 71.0986 45.0273 71.439C45.1895 71.7007 45.3523 72.02 45.4927 72.2956L45.5177 72.3446C45.6607 72.6253 45.801 72.9005 45.9546 73.1739C46.2977 73.784 46.606 74.1918 46.8788 74.3953C48.0748 75.2875 49.3907 76.4354 50.1342 78.7943C50.5539 80.1254 50.9452 80.9261 51.3603 81.7755C51.5107 82.0831 51.6641 82.3971 51.8232 82.745C52.1095 83.3712 51.947 83.9509 51.7854 84.2823C51.6311 84.5988 51.4108 84.8441 51.2427 85.01C50.897 85.3512 50.4285 85.6854 49.9637 85.9895C49.2594 86.4502 48.3471 86.978 47.4256 87.5111C47.1154 87.6906 46.8041 87.8707 46.4994 88.049C45.2417 88.785 44.0654 89.5075 43.231 90.1671C42.8107 90.4993 42.5455 90.7631 42.4043 90.9515C42.3982 90.9596 42.3926 90.9673 42.3874 90.9746C42.5328 91.5022 42.9974 92.1043 43.8227 92.7145C44.7038 93.366 45.7551 93.8447 46.469 94.0898C47.4768 94.4358 48.5427 95.0498 49.4596 95.7502C50.3668 96.4433 51.2493 97.3133 51.7934 98.2398C51.9694 98.5395 52.1241 98.7511 52.2571 98.886C52.2982 98.9276 52.3302 98.9549 52.3531 98.9723C52.3693 98.9651 52.3898 98.9549 52.4149 98.9409C52.5884 98.844 52.8958 98.6037 53.3287 98.0624C53.9842 97.2429 54.5462 96.2999 55.1902 95.2192C55.4552 94.7745 55.7342 94.3064 56.0392 93.814C57.0346 92.2075 58.2438 90.4701 59.9646 89.0906C60.9858 88.2719 61.4973 86.6677 61.8496 84.5529C61.9271 84.0875 61.9936 83.625 62.0604 83.1608L62.0756 83.0551C62.1463 82.5637 62.2189 82.0651 62.3029 81.5991C62.4568 80.7454 62.6922 79.6976 63.2446 78.9408C64.7205 76.9186 66.5271 75.508 69.4817 73.8428C70.3589 73.3484 71.3926 73.0038 72.3985 72.7304C73.1907 72.5151 74.0368 72.3262 74.8386 72.1472C75.0562 72.0986 75.2706 72.0507 75.4797 72.0032C76.4906 71.7738 77.396 71.5505 78.1545 71.2797C78.9327 71.002 79.4031 70.7258 79.6529 70.4756C80.3656 69.7619 80.8584 68.7153 81.3367 67.3152C81.4743 66.9123 81.6152 66.4625 81.7634 65.9893C82.0858 64.9598 82.4429 63.8196 82.8768 62.8108C83.0976 62.2974 83.3041 61.4089 83.4716 60.2378C83.6343 59.1003 83.745 57.8115 83.8196 56.5687C83.9686 54.0853 83.9686 51.8677 83.9686 51.5674C83.9686 51.55 83.9686 51.5319 83.9686 51.513C83.9679 50.8999 83.9665 49.5246 84.599 48.2706C84.7737 47.9243 85.0423 47.6107 85.2587 47.3769C85.498 47.1184 85.7871 46.839 86.0939 46.5539C86.4354 46.2366 86.8492 45.8667 87.2824 45.4796C87.6016 45.1943 87.9314 44.8995 88.2504 44.6096C89.8578 43.1485 91.4214 41.6015 92.1976 40.2426C93.9769 37.1283 94.4365 34.0731 93.5871 30.5215C93.0682 29.6045 92.3085 29.5033 90.7703 29.2983C90.6109 29.2771 90.4431 29.2547 90.2663 29.2302C90.2147 29.2231 90.1635 29.2132 90.1129 29.2008C88.983 28.922 87.6663 28.093 86.5737 27.259C85.4559 26.4058 84.3495 25.374 83.614 24.4578C82.9359 23.7151 82.0201 23.4561 80.6417 23.3821C80.19 23.3579 79.7704 23.3549 79.3155 23.3517C79.0244 23.3496 78.7189 23.3474 78.3814 23.3395C77.6094 23.3214 76.7571 23.2714 75.9151 23.0801C73.6364 22.7843 71.4746 21.9829 69.5082 21.0971C68.5105 20.6477 67.5434 20.1671 66.6304 19.7105C66.559 19.6748 66.488 19.6392 66.4173 19.6039C65.5752 19.1825 64.7859 18.7874 64.0269 18.4389C61.795 17.4142 60.3327 15.0224 59.4541 12.9954C58.5616 10.9365 58.0601 8.75247 58.0601 7.62602C58.0601 7.05562 57.8531 6.15774 57.444 5.33937C57.0112 4.47347 56.5446 4.07085 56.2696 3.97918C55.4806 3.71612 54.0634 4.25569 53.6933 5.73631C53.3567 7.08297 52.8747 8.16934 52.1862 8.99805C51.4746 9.85448 50.6144 10.3489 49.6874 10.6127C48.8033 10.8642 47.8746 10.9006 47.0178 10.8938C46.5817 10.8904 46.2102 10.8785 45.8449 10.8667C45.3798 10.8518 44.9247 10.8372 44.3586 10.8408C43.0004 10.8495 41.7528 11.4825 40.3426 12.1981C40.2106 12.2651 40.0771 12.3328 39.942 12.4009C39.2451 12.7516 38.3822 13.1695 37.5275 13.2959C37.0688 13.3638 36.55 13.3598 36.0211 13.1835C35.4809 13.0034 35.0254 12.6753 34.6574 12.2404C33.3103 10.6481 33.593 8.63279 33.8716 7.20854C33.9389 6.86447 34.0159 6.51479 34.0892 6.18158C34.0978 6.14262 34.1063 6.10387 34.1148 6.06539C34.1973 5.69012 34.2747 5.33244 34.34 4.97893C34.4531 4.36682 34.5196 3.81866 34.5127 3.31879C34.3852 3.39256 34.2411 3.47847 34.076 3.5774L34.0487 3.59377ZM35.1952 2.9905C35.1952 2.9905 35.1862 2.99361 35.1706 2.99602C35.1878 2.99107 35.1952 2.9905 35.1952 2.9905ZM42.3262 91.0733C42.3262 91.0733 42.3274 91.0696 42.3314 91.0618C42.3286 91.0694 42.3262 91.0733 42.3262 91.0733ZM36.4272 0.430298C37.2485 1.04506 37.4438 2.07202 37.4968 2.88014C37.5575 3.80616 37.4399 4.71332 37.29 5.52434C37.2146 5.93264 37.1273 6.33441 37.0448 6.70966C37.0363 6.7483 37.0279 6.78661 37.0195 6.82461C36.945 7.16325 36.8759 7.47742 36.8158 7.78472C36.5262 9.26487 36.6124 9.90598 36.9475 10.302C36.9609 10.3179 36.9714 10.3287 36.9789 10.3359C36.9982 10.3366 37.0333 10.3358 37.0884 10.3276C37.3944 10.2823 37.8436 10.0979 38.5935 9.72042C38.7254 9.654 38.8651 9.58214 39.0119 9.50657C40.3287 8.82896 42.2239 7.85371 44.3395 7.84021C44.8875 7.83671 45.5188 7.85488 46.0779 7.87098C46.4448 7.88154 46.7807 7.8912 47.0414 7.89326C47.8337 7.8995 48.4098 7.8565 48.8665 7.72655C49.2802 7.60882 49.597 7.41952 49.8789 7.08017C50.1839 6.71311 50.5122 6.09162 50.7829 5.0085C51.5393 1.98257 54.6279 0.268889 57.2183 1.1325C58.633 1.60415 59.5745 2.89159 60.1273 3.99745C60.7038 5.15082 61.0601 6.50637 61.0601 7.62602C61.0601 8.18963 61.4034 9.94903 62.2065 11.8018C63.0234 13.6863 64.1074 15.1742 65.2785 15.7119C66.0857 16.0825 66.9196 16.4999 67.7511 16.916C67.8248 16.9529 67.8985 16.9898 67.9722 17.0267C68.8862 17.4838 69.8041 17.9395 70.7402 18.3612C72.6184 19.2072 74.4913 19.8793 76.3655 20.1126C76.4203 20.1194 76.4746 20.1292 76.5283 20.142C77.0837 20.2746 77.7133 20.3224 78.4516 20.3397C78.6856 20.3452 78.948 20.3474 79.2234 20.3497C79.7375 20.354 80.2971 20.3587 80.8024 20.3858C82.4406 20.4737 84.3839 20.812 85.8777 22.4881C85.8966 22.5093 85.9148 22.5309 85.9324 22.5531C86.471 23.231 87.3944 24.1109 88.3937 24.8736C89.3888 25.6331 90.2589 26.1219 90.7652 26.2696C90.8808 26.2844 91.0065 26.2984 91.1404 26.3135C92.6034 26.4773 95.0614 26.7526 96.3417 29.3136C96.3906 29.4116 96.4287 29.5145 96.4552 29.6207C97.549 33.9969 96.9943 37.8947 94.8024 41.7314C93.7567 43.5617 91.8371 45.404 90.268 46.8302C89.8999 47.1648 89.5582 47.47 89.2401 47.754C88.8355 48.1153 88.4692 48.4424 88.1357 48.7523C87.848 49.0197 87.6232 49.2393 87.4601 49.4155C87.3157 49.5715 87.2686 49.6399 87.2686 49.6399C86.9898 50.2065 86.9686 50.9221 86.9686 51.5674C86.9686 51.8857 86.9686 54.1746 86.8142 56.7485C86.737 58.0347 86.6201 59.4129 86.4414 60.6627C86.2674 61.8791 86.0188 63.0986 85.6326 63.9965C85.2572 64.8695 84.986 65.7396 84.6938 66.677C84.5341 67.1892 84.3682 67.7215 84.1755 68.2854C83.6716 69.7604 83.0012 71.3687 81.7756 72.596C81.0563 73.3164 80.0876 73.7758 79.1628 74.1058C78.2184 74.4429 77.157 74.6995 76.1436 74.9295C75.9103 74.9825 75.6799 75.0339 75.4524 75.0848C74.6609 75.2616 73.9046 75.4305 73.1852 75.6261C72.2578 75.8781 71.5069 76.1455 70.9544 76.457C68.1898 78.0151 66.7907 79.1714 65.6676 80.7101C65.5703 80.8434 65.4157 81.2414 65.2553 82.1315C65.1821 82.5374 65.1166 82.9852 65.045 83.4826L65.029 83.5937C64.9631 84.052 64.8921 84.5462 64.8088 85.046C64.4673 87.0964 63.8518 89.8199 61.8408 91.432C60.5293 92.4834 59.5371 93.8649 58.5892 95.3947C58.3547 95.7733 58.1168 96.1726 57.8741 96.5799C57.1886 97.7302 56.465 98.9446 55.6713 99.9369C54.593 101.285 55 102 52 102C51 102 50.5034 101.381 50.1214 100.993C49.7402 100.607 49.4401 100.157 49.2067 99.7596C48.9317 99.2915 48.3756 98.6978 47.6387 98.1349C46.9116 97.5794 46.1279 97.1452 45.495 96.9279C44.5681 96.6097 43.2248 96.004 42.0393 95.1275C40.8943 94.2808 39.6274 92.9803 39.3786 91.211C39.2556 90.3362 39.6594 89.6112 40.0041 89.1514C40.3702 88.663 40.8646 88.213 41.3708 87.8129C42.3895 87.0077 43.7343 86.1906 44.9844 85.4591C45.3301 85.2568 45.6676 85.0615 45.9928 84.8733C46.8887 84.3549 47.6921 83.89 48.3217 83.4782C48.4757 83.3775 48.6074 83.2873 48.7188 83.2076C48.2844 82.3199 47.7662 81.2608 47.2731 79.6966C46.7992 78.1933 46.0441 77.516 45.0852 76.8006C44.2805 76.2003 43.7194 75.3199 43.3398 74.6448C43.1548 74.3157 42.9884 73.9891 42.8501 73.7175L42.82 73.6583C42.7015 73.4259 42.6129 73.2548 42.5406 73.1271C42.4804 73.086 42.3867 73.029 42.2452 72.9514C42.0982 72.8707 41.9348 72.7866 41.7398 72.6862L41.6667 72.6486C41.4472 72.5355 41.1983 72.4065 40.9446 72.2648C40.0272 71.7527 38.5658 70.8336 38.1085 69.1958C37.8722 68.3498 37.982 67.4428 38.1181 66.7151C38.2129 66.2083 38.3548 65.6349 38.4886 65.0945C38.5482 64.8535 38.6063 64.619 38.6578 64.3999C39.0374 62.7854 39.1617 61.5835 38.747 60.6992C38.5702 60.3223 38.4562 60.3053 38.4437 60.3034L38.4426 60.3032C38.3901 60.2848 38.3001 60.2641 38.117 60.2465C38.027 60.2379 37.9335 60.2314 37.813 60.2232L37.8054 60.2226C37.6887 60.2146 37.5469 60.2048 37.4002 60.19C36.7866 60.1279 35.9484 59.9673 35.1576 59.2888C34.4039 58.6422 33.8611 57.6702 33.4487 56.3518C33.0751 55.1574 32.7865 54.2432 32.5047 53.5108C32.2226 52.7772 31.9838 52.327 31.7512 52.0277C31.3996 51.5753 30.9266 51.2636 29.3397 51.1355C27.3487 50.9747 25.2621 50.2853 23.6659 49.2813C22.1867 48.351 20.582 46.7778 20.7845 44.7079C20.8805 43.7265 20.7141 43.1219 20.5146 42.8185C20.3758 42.6076 20.1367 42.3966 19.4936 42.4105C19.481 42.4108 19.3308 42.4175 18.9822 42.7369C18.6314 43.0582 18.2742 43.5109 17.8114 44.1056L17.7796 44.1464C17.3618 44.6835 16.8508 45.3403 16.2785 45.8694C15.6883 46.4151 14.8746 46.9778 13.8242 47.0722C12.1161 47.2257 10.9081 46.4854 10.046 45.8329C9.85089 45.6853 9.66209 45.5331 9.49462 45.3981L9.45526 45.3664C9.27103 45.2179 9.11152 45.0903 8.9548 44.9743C8.6391 44.7405 8.40609 44.6088 8.20117 44.5405C7.11062 44.1769 5.37766 43.1359 3.9455 41.9065C3.2143 41.2787 2.4956 40.5467 1.95423 39.7564C1.42761 38.9876 0.964108 38.0107 1.00082 36.935C1.02079 36.3499 1.01972 35.6747 1.01656 34.9444C1.01631 34.8848 1.01604 34.8248 1.01576 34.7645C1.01275 34.0979 1.00958 33.3949 1.02287 32.7246C1.0373 31.9971 1.07162 31.2656 1.15453 30.62C1.23134 30.0219 1.37058 29.3039 1.7026 28.7315C2.67231 27.0599 4.72925 25.9151 6.57094 25.6177C6.84231 25.5739 7.09306 25.5388 7.32962 25.5057C7.8826 25.4282 8.35803 25.3616 8.83794 25.2202C9.46322 25.036 9.7581 24.8066 9.91234 24.534C9.96441 24.4419 10.0274 24.2574 10.0466 23.8809C10.0662 23.4979 10.0371 23.0559 9.99548 22.474C9.9929 22.438 9.99026 22.4014 9.98758 22.3643C9.91146 21.3105 9.80457 19.8308 10.3056 18.4232C10.3577 18.277 10.373 18.0771 10.2566 17.7235C10.1308 17.3414 9.89568 16.9107 9.55998 16.352C9.51153 16.2713 9.46026 16.1869 9.40709 16.0994C9.12694 15.6382 8.79402 15.0902 8.54329 14.5486C8.24001 13.8936 7.96047 13.0572 8.05863 12.1303C8.21139 10.6879 8.86101 9.5101 9.93817 8.78622C10.984 8.08339 12.2465 7.93311 13.4253 8.13781C14.401 8.30722 15.9145 8.85982 17.2191 9.33612C17.3346 9.37826 17.4484 9.41981 17.56 9.46044C18.2923 9.72693 18.9717 9.97073 19.5385 10.1481C19.8212 10.2365 20.0556 10.302 20.2405 10.3442C20.3993 10.3804 20.4774 10.389 20.4958 10.391C20.501 10.3916 20.5015 10.3916 20.4978 10.3916C20.6375 10.3916 20.7776 10.3931 20.9175 10.3946C21.5008 10.4008 22.0802 10.4069 22.6149 10.3052C22.9281 10.2457 23.1027 10.1673 23.1846 10.1113C23.2252 10.0836 23.2261 10.0777 23.2276 10.0672C23.2276 10.0672 23.2282 10.0631 23.2288 10.0607C23.2947 9.79182 23.217 9.39602 22.842 8.59243C22.7998 8.50199 22.7501 8.39867 22.6968 8.28784C22.5618 8.00701 22.4036 7.67794 22.285 7.38791C22.1146 6.97152 21.9182 6.39674 21.9321 5.76628C21.9426 5.28754 22.1033 4.82791 22.4178 4.44943C22.7131 4.09403 23.0773 3.88937 23.3835 3.76867C23.9635 3.54003 24.6164 3.50439 25.1188 3.50808C25.8411 3.5134 26.743 3.62443 27.3525 3.69947C27.5655 3.72569 27.7428 3.74752 27.8643 3.7589C27.8802 3.7568 27.942 3.74508 28.0671 3.68509C28.2644 3.59049 28.5056 3.4326 28.8452 3.18583C28.9265 3.12676 29.0146 3.0613 29.1088 2.99124C29.7012 2.55093 30.5376 1.92923 31.4672 1.5759C31.7391 1.47254 32.0694 1.28189 32.5341 1.0034C32.5582 0.988983 32.5828 0.974183 32.608 0.959057C32.9982 0.724742 33.5192 0.411907 34.0201 0.220388C34.5034 0.0356263 35.5172 -0.250858 36.4272 0.430298ZM27.86 3.75933L27.8611 3.75926ZM36.9598 10.3341L36.9619 10.3345Z" fill="#7256E3"/>
</svg>
